%TF.GenerationSoftware,KiCad,Pcbnew,9.0.3*%
%TF.CreationDate,2026-06-28T12:31:47-06:00*%
%TF.ProjectId,BleSafeDevice_DA14531MOD.kicad_pro,426c6553-6166-4654-9465-766963655f44,rev?*%
%TF.SameCoordinates,Original*%
%TF.FileFunction,Legend,Top*%
%TF.FilePolarity,Positive*%
%FSLAX46Y46*%
G04 Gerber Fmt 4.6, Leading zero omitted, Abs format (unit mm)*
G04 Created by KiCad (PCBNEW 9.0.3) date 2026-06-28 12:31:47*
%MOMM*%
%LPD*%
G01*
G04 APERTURE LIST*
%ADD10C,0.100000*%
%ADD11C,0.150000*%
%ADD12C,0.120000*%
%ADD13C,0.127000*%
%ADD14C,0.200000*%
G04 APERTURE END LIST*
D10*
X136733333Y-123964895D02*
X136733333Y-124536323D01*
X136733333Y-124536323D02*
X136695238Y-124650609D01*
X136695238Y-124650609D02*
X136619047Y-124726800D01*
X136619047Y-124726800D02*
X136504762Y-124764895D01*
X136504762Y-124764895D02*
X136428571Y-124764895D01*
X137076190Y-124041085D02*
X137114286Y-124002990D01*
X137114286Y-124002990D02*
X137190476Y-123964895D01*
X137190476Y-123964895D02*
X137380952Y-123964895D01*
X137380952Y-123964895D02*
X137457143Y-124002990D01*
X137457143Y-124002990D02*
X137495238Y-124041085D01*
X137495238Y-124041085D02*
X137533333Y-124117276D01*
X137533333Y-124117276D02*
X137533333Y-124193466D01*
X137533333Y-124193466D02*
X137495238Y-124307752D01*
X137495238Y-124307752D02*
X137038095Y-124764895D01*
X137038095Y-124764895D02*
X137533333Y-124764895D01*
X136078571Y-125214895D02*
X135621428Y-125214895D01*
X135850000Y-125214895D02*
X135850000Y-124414895D01*
X135850000Y-124414895D02*
X135773809Y-124529180D01*
X135773809Y-124529180D02*
X135697619Y-124605371D01*
X135697619Y-124605371D02*
X135621428Y-124643466D01*
D11*
X100861905Y-117704819D02*
X100861905Y-116704819D01*
X100861905Y-116704819D02*
X101100000Y-116704819D01*
X101100000Y-116704819D02*
X101242857Y-116752438D01*
X101242857Y-116752438D02*
X101338095Y-116847676D01*
X101338095Y-116847676D02*
X101385714Y-116942914D01*
X101385714Y-116942914D02*
X101433333Y-117133390D01*
X101433333Y-117133390D02*
X101433333Y-117276247D01*
X101433333Y-117276247D02*
X101385714Y-117466723D01*
X101385714Y-117466723D02*
X101338095Y-117561961D01*
X101338095Y-117561961D02*
X101242857Y-117657200D01*
X101242857Y-117657200D02*
X101100000Y-117704819D01*
X101100000Y-117704819D02*
X100861905Y-117704819D01*
X101766667Y-116704819D02*
X102385714Y-116704819D01*
X102385714Y-116704819D02*
X102052381Y-117085771D01*
X102052381Y-117085771D02*
X102195238Y-117085771D01*
X102195238Y-117085771D02*
X102290476Y-117133390D01*
X102290476Y-117133390D02*
X102338095Y-117181009D01*
X102338095Y-117181009D02*
X102385714Y-117276247D01*
X102385714Y-117276247D02*
X102385714Y-117514342D01*
X102385714Y-117514342D02*
X102338095Y-117609580D01*
X102338095Y-117609580D02*
X102290476Y-117657200D01*
X102290476Y-117657200D02*
X102195238Y-117704819D01*
X102195238Y-117704819D02*
X101909524Y-117704819D01*
X101909524Y-117704819D02*
X101814286Y-117657200D01*
X101814286Y-117657200D02*
X101766667Y-117609580D01*
D10*
X136333333Y-119264895D02*
X136333333Y-119836323D01*
X136333333Y-119836323D02*
X136295238Y-119950609D01*
X136295238Y-119950609D02*
X136219047Y-120026800D01*
X136219047Y-120026800D02*
X136104762Y-120064895D01*
X136104762Y-120064895D02*
X136028571Y-120064895D01*
X136714286Y-120064895D02*
X136714286Y-119264895D01*
X136714286Y-119264895D02*
X137019048Y-119264895D01*
X137019048Y-119264895D02*
X137095238Y-119302990D01*
X137095238Y-119302990D02*
X137133333Y-119341085D01*
X137133333Y-119341085D02*
X137171429Y-119417276D01*
X137171429Y-119417276D02*
X137171429Y-119531561D01*
X137171429Y-119531561D02*
X137133333Y-119607752D01*
X137133333Y-119607752D02*
X137095238Y-119645847D01*
X137095238Y-119645847D02*
X137019048Y-119683942D01*
X137019048Y-119683942D02*
X136714286Y-119683942D01*
X137933333Y-120064895D02*
X137476190Y-120064895D01*
X137704762Y-120064895D02*
X137704762Y-119264895D01*
X137704762Y-119264895D02*
X137628571Y-119379180D01*
X137628571Y-119379180D02*
X137552381Y-119455371D01*
X137552381Y-119455371D02*
X137476190Y-119493466D01*
D11*
X121108333Y-109559580D02*
X121060714Y-109607200D01*
X121060714Y-109607200D02*
X120917857Y-109654819D01*
X120917857Y-109654819D02*
X120822619Y-109654819D01*
X120822619Y-109654819D02*
X120679762Y-109607200D01*
X120679762Y-109607200D02*
X120584524Y-109511961D01*
X120584524Y-109511961D02*
X120536905Y-109416723D01*
X120536905Y-109416723D02*
X120489286Y-109226247D01*
X120489286Y-109226247D02*
X120489286Y-109083390D01*
X120489286Y-109083390D02*
X120536905Y-108892914D01*
X120536905Y-108892914D02*
X120584524Y-108797676D01*
X120584524Y-108797676D02*
X120679762Y-108702438D01*
X120679762Y-108702438D02*
X120822619Y-108654819D01*
X120822619Y-108654819D02*
X120917857Y-108654819D01*
X120917857Y-108654819D02*
X121060714Y-108702438D01*
X121060714Y-108702438D02*
X121108333Y-108750057D01*
X122060714Y-109654819D02*
X121489286Y-109654819D01*
X121775000Y-109654819D02*
X121775000Y-108654819D01*
X121775000Y-108654819D02*
X121679762Y-108797676D01*
X121679762Y-108797676D02*
X121584524Y-108892914D01*
X121584524Y-108892914D02*
X121489286Y-108940533D01*
D12*
X105809524Y-110663855D02*
X105809524Y-109863855D01*
X105809524Y-109863855D02*
X106000000Y-109863855D01*
X106000000Y-109863855D02*
X106114286Y-109901950D01*
X106114286Y-109901950D02*
X106190476Y-109978140D01*
X106190476Y-109978140D02*
X106228571Y-110054331D01*
X106228571Y-110054331D02*
X106266667Y-110206712D01*
X106266667Y-110206712D02*
X106266667Y-110320998D01*
X106266667Y-110320998D02*
X106228571Y-110473379D01*
X106228571Y-110473379D02*
X106190476Y-110549569D01*
X106190476Y-110549569D02*
X106114286Y-110625760D01*
X106114286Y-110625760D02*
X106000000Y-110663855D01*
X106000000Y-110663855D02*
X105809524Y-110663855D01*
X107028571Y-110663855D02*
X106571428Y-110663855D01*
X106800000Y-110663855D02*
X106800000Y-109863855D01*
X106800000Y-109863855D02*
X106723809Y-109978140D01*
X106723809Y-109978140D02*
X106647619Y-110054331D01*
X106647619Y-110054331D02*
X106571428Y-110092426D01*
D11*
X129929580Y-110266666D02*
X129977200Y-110314285D01*
X129977200Y-110314285D02*
X130024819Y-110457142D01*
X130024819Y-110457142D02*
X130024819Y-110552380D01*
X130024819Y-110552380D02*
X129977200Y-110695237D01*
X129977200Y-110695237D02*
X129881961Y-110790475D01*
X129881961Y-110790475D02*
X129786723Y-110838094D01*
X129786723Y-110838094D02*
X129596247Y-110885713D01*
X129596247Y-110885713D02*
X129453390Y-110885713D01*
X129453390Y-110885713D02*
X129262914Y-110838094D01*
X129262914Y-110838094D02*
X129167676Y-110790475D01*
X129167676Y-110790475D02*
X129072438Y-110695237D01*
X129072438Y-110695237D02*
X129024819Y-110552380D01*
X129024819Y-110552380D02*
X129024819Y-110457142D01*
X129024819Y-110457142D02*
X129072438Y-110314285D01*
X129072438Y-110314285D02*
X129120057Y-110266666D01*
X129024819Y-109933332D02*
X129024819Y-109314285D01*
X129024819Y-109314285D02*
X129405771Y-109647618D01*
X129405771Y-109647618D02*
X129405771Y-109504761D01*
X129405771Y-109504761D02*
X129453390Y-109409523D01*
X129453390Y-109409523D02*
X129501009Y-109361904D01*
X129501009Y-109361904D02*
X129596247Y-109314285D01*
X129596247Y-109314285D02*
X129834342Y-109314285D01*
X129834342Y-109314285D02*
X129929580Y-109361904D01*
X129929580Y-109361904D02*
X129977200Y-109409523D01*
X129977200Y-109409523D02*
X130024819Y-109504761D01*
X130024819Y-109504761D02*
X130024819Y-109790475D01*
X130024819Y-109790475D02*
X129977200Y-109885713D01*
X129977200Y-109885713D02*
X129929580Y-109933332D01*
X129929580Y-113566666D02*
X129977200Y-113614285D01*
X129977200Y-113614285D02*
X130024819Y-113757142D01*
X130024819Y-113757142D02*
X130024819Y-113852380D01*
X130024819Y-113852380D02*
X129977200Y-113995237D01*
X129977200Y-113995237D02*
X129881961Y-114090475D01*
X129881961Y-114090475D02*
X129786723Y-114138094D01*
X129786723Y-114138094D02*
X129596247Y-114185713D01*
X129596247Y-114185713D02*
X129453390Y-114185713D01*
X129453390Y-114185713D02*
X129262914Y-114138094D01*
X129262914Y-114138094D02*
X129167676Y-114090475D01*
X129167676Y-114090475D02*
X129072438Y-113995237D01*
X129072438Y-113995237D02*
X129024819Y-113852380D01*
X129024819Y-113852380D02*
X129024819Y-113757142D01*
X129024819Y-113757142D02*
X129072438Y-113614285D01*
X129072438Y-113614285D02*
X129120057Y-113566666D01*
X129358152Y-112709523D02*
X130024819Y-112709523D01*
X128977200Y-112947618D02*
X129691485Y-113185713D01*
X129691485Y-113185713D02*
X129691485Y-112566666D01*
D10*
X104964895Y-102266666D02*
X105536323Y-102266666D01*
X105536323Y-102266666D02*
X105650609Y-102304761D01*
X105650609Y-102304761D02*
X105726800Y-102380952D01*
X105726800Y-102380952D02*
X105764895Y-102495237D01*
X105764895Y-102495237D02*
X105764895Y-102571428D01*
X105764895Y-101466666D02*
X105764895Y-101923809D01*
X105764895Y-101695237D02*
X104964895Y-101695237D01*
X104964895Y-101695237D02*
X105079180Y-101771428D01*
X105079180Y-101771428D02*
X105155371Y-101847618D01*
X105155371Y-101847618D02*
X105193466Y-101923809D01*
X106214895Y-103971428D02*
X106214895Y-104428571D01*
X106214895Y-104199999D02*
X105414895Y-104199999D01*
X105414895Y-104199999D02*
X105529180Y-104276190D01*
X105529180Y-104276190D02*
X105605371Y-104352380D01*
X105605371Y-104352380D02*
X105643466Y-104428571D01*
D11*
X113333333Y-110179580D02*
X113285714Y-110227200D01*
X113285714Y-110227200D02*
X113142857Y-110274819D01*
X113142857Y-110274819D02*
X113047619Y-110274819D01*
X113047619Y-110274819D02*
X112904762Y-110227200D01*
X112904762Y-110227200D02*
X112809524Y-110131961D01*
X112809524Y-110131961D02*
X112761905Y-110036723D01*
X112761905Y-110036723D02*
X112714286Y-109846247D01*
X112714286Y-109846247D02*
X112714286Y-109703390D01*
X112714286Y-109703390D02*
X112761905Y-109512914D01*
X112761905Y-109512914D02*
X112809524Y-109417676D01*
X112809524Y-109417676D02*
X112904762Y-109322438D01*
X112904762Y-109322438D02*
X113047619Y-109274819D01*
X113047619Y-109274819D02*
X113142857Y-109274819D01*
X113142857Y-109274819D02*
X113285714Y-109322438D01*
X113285714Y-109322438D02*
X113333333Y-109370057D01*
X113714286Y-109370057D02*
X113761905Y-109322438D01*
X113761905Y-109322438D02*
X113857143Y-109274819D01*
X113857143Y-109274819D02*
X114095238Y-109274819D01*
X114095238Y-109274819D02*
X114190476Y-109322438D01*
X114190476Y-109322438D02*
X114238095Y-109370057D01*
X114238095Y-109370057D02*
X114285714Y-109465295D01*
X114285714Y-109465295D02*
X114285714Y-109560533D01*
X114285714Y-109560533D02*
X114238095Y-109703390D01*
X114238095Y-109703390D02*
X113666667Y-110274819D01*
X113666667Y-110274819D02*
X114285714Y-110274819D01*
D12*
%TO.C,D3*%
X100790000Y-117990000D02*
X100790000Y-119210000D01*
X100790000Y-117990000D02*
X102100000Y-117990000D01*
X100790000Y-119210000D02*
X102100000Y-119210000D01*
%TO.C,C1*%
X120788748Y-110140000D02*
X122211252Y-110140000D01*
X120788748Y-112860000D02*
X122211252Y-112860000D01*
%TO.C,D1*%
X107100000Y-111100000D02*
X106900000Y-111100000D01*
X107100000Y-111300000D02*
X107100000Y-111100000D01*
%TO.C,C3*%
X130490000Y-110240580D02*
X130490000Y-109959420D01*
X131510000Y-110240580D02*
X131510000Y-109959420D01*
%TO.C,C8*%
X99690000Y-114340580D02*
X99690000Y-114059420D01*
X100710000Y-114340580D02*
X100710000Y-114059420D01*
%TO.C,C5*%
X116490000Y-112415580D02*
X116490000Y-112134420D01*
X117510000Y-112415580D02*
X117510000Y-112134420D01*
%TO.C,R1*%
X104037258Y-112077500D02*
X103562742Y-112077500D01*
X104037258Y-113122500D02*
X103562742Y-113122500D01*
%TO.C,C4*%
X130490000Y-113540580D02*
X130490000Y-113259420D01*
X131510000Y-113540580D02*
X131510000Y-113259420D01*
D13*
%TO.C,U4*%
X111250000Y-114750000D02*
X112930000Y-114750000D01*
X111250000Y-116180000D02*
X111250000Y-114750000D01*
X111250000Y-129250000D02*
X111250000Y-123820000D01*
X122070000Y-114750000D02*
X123750000Y-114750000D01*
X123750000Y-114750000D02*
X123750000Y-116180000D01*
X123750000Y-123820000D02*
X123750000Y-129250000D01*
X123750000Y-129250000D02*
X111250000Y-129250000D01*
D14*
X124850000Y-123000000D02*
G75*
G02*
X124650000Y-123000000I-100000J0D01*
G01*
X124650000Y-123000000D02*
G75*
G02*
X124850000Y-123000000I100000J0D01*
G01*
D12*
%TO.C,C2*%
X113238748Y-110765000D02*
X113761252Y-110765000D01*
X113238748Y-112235000D02*
X113761252Y-112235000D01*
%TD*%
M02*
