%TF.GenerationSoftware,KiCad,Pcbnew,9.0.3*%
%TF.CreationDate,2026-06-28T12:31:47-06:00*%
%TF.ProjectId,BleSafeDevice_DA14531MOD.kicad_pro,426c6553-6166-4654-9465-766963655f44,rev?*%
%TF.SameCoordinates,Original*%
%TF.FileFunction,Soldermask,Bot*%
%TF.FilePolarity,Negative*%
%FSLAX46Y46*%
G04 Gerber Fmt 4.6, Leading zero omitted, Abs format (unit mm)*
G04 Created by KiCad (PCBNEW 9.0.3) date 2026-06-28 12:31:47*
%MOMM*%
%LPD*%
G01*
G04 APERTURE LIST*
G04 APERTURE END LIST*
G36*
X104679034Y-105865764D02*
G01*
X104712125Y-105887875D01*
X104734236Y-105920966D01*
X104742000Y-105960000D01*
X104742000Y-111040000D01*
X104734236Y-111079034D01*
X104712125Y-111112125D01*
X104679034Y-111134236D01*
X104640000Y-111142000D01*
X99560000Y-111142000D01*
X99520966Y-111134236D01*
X99487875Y-111112125D01*
X99465764Y-111079034D01*
X99458000Y-111040000D01*
X99458000Y-105960000D01*
X99465764Y-105920966D01*
X99487875Y-105887875D01*
X99520966Y-105865764D01*
X99560000Y-105858000D01*
X104640000Y-105858000D01*
X104679034Y-105865764D01*
G37*
G36*
X130329034Y-105865764D02*
G01*
X130362125Y-105887875D01*
X130384236Y-105920966D01*
X130392000Y-105960000D01*
X130392000Y-111040000D01*
X130384236Y-111079034D01*
X130362125Y-111112125D01*
X130329034Y-111134236D01*
X130290000Y-111142000D01*
X125210000Y-111142000D01*
X125170966Y-111134236D01*
X125137875Y-111112125D01*
X125115764Y-111079034D01*
X125108000Y-111040000D01*
X125108000Y-105960000D01*
X125115764Y-105920966D01*
X125137875Y-105887875D01*
X125170966Y-105865764D01*
X125210000Y-105858000D01*
X130290000Y-105858000D01*
X130329034Y-105865764D01*
G37*
G36*
X116944034Y-106425764D02*
G01*
X116977125Y-106447875D01*
X116999236Y-106480966D01*
X117007000Y-106520000D01*
X117007000Y-110480000D01*
X116999236Y-110519034D01*
X116977125Y-110552125D01*
X116944034Y-110574236D01*
X116905000Y-110582000D01*
X112945000Y-110582000D01*
X112905966Y-110574236D01*
X112872875Y-110552125D01*
X112850764Y-110519034D01*
X112843000Y-110480000D01*
X112843000Y-106520000D01*
X112850764Y-106480966D01*
X112872875Y-106447875D01*
X112905966Y-106425764D01*
X112945000Y-106418000D01*
X116905000Y-106418000D01*
X116944034Y-106425764D01*
G37*
M02*
