%TF.GenerationSoftware,KiCad,Pcbnew,9.0.3*%
%TF.CreationDate,2026-06-27T23:32:57-06:00*%
%TF.ProjectId,BleSafeDevice_DA14531MOD.kicad_pro,426c6553-6166-4654-9465-766963655f44,rev?*%
%TF.SameCoordinates,Original*%
%TF.FileFunction,Copper,L2,Bot*%
%TF.FilePolarity,Positive*%
%FSLAX46Y46*%
G04 Gerber Fmt 4.6, Leading zero omitted, Abs format (unit mm)*
G04 Created by KiCad (PCBNEW 9.0.3) date 2026-06-27 23:32:57*
%MOMM*%
%LPD*%
G01*
G04 APERTURE LIST*
%TA.AperFunction,SMDPad,CuDef*%
%ADD10R,3.960000X3.960000*%
%TD*%
%TA.AperFunction,SMDPad,CuDef*%
%ADD11R,5.080000X5.080000*%
%TD*%
%TA.AperFunction,ViaPad*%
%ADD12C,0.650000*%
%TD*%
%TA.AperFunction,ViaPad*%
%ADD13C,0.600000*%
%TD*%
%TA.AperFunction,Conductor*%
%ADD14C,0.400000*%
%TD*%
%TA.AperFunction,Conductor*%
%ADD15C,0.350000*%
%TD*%
%TA.AperFunction,Conductor*%
%ADD16C,0.300000*%
%TD*%
%TA.AperFunction,Conductor*%
%ADD17C,0.220000*%
%TD*%
%TA.AperFunction,Conductor*%
%ADD18C,0.200000*%
%TD*%
%ADD19C,0.300000*%
G04 APERTURE END LIST*
D10*
%TO.P,BT1,N*%
%TO.N,GND*%
X114925000Y-108500000D03*
D11*
%TO.P,BT1,P1*%
%TO.N,VBAT*%
X127750000Y-108500000D03*
%TO.P,BT1,P2*%
X102100000Y-108500000D03*
%TD*%
D12*
%TO.N,VBAT*%
X133400000Y-121400000D03*
%TO.N,GND*%
X125200000Y-112400000D03*
D13*
X100800000Y-113425000D03*
D12*
X140400000Y-123600000D03*
D13*
X101950000Y-119400000D03*
D12*
X110600000Y-110300000D03*
D13*
%TO.N,VCC*%
X108800000Y-107000000D03*
X108800000Y-111000000D03*
%TO.N,/BTN_SW*%
X111750000Y-121500000D03*
X105400000Y-118600000D03*
%TO.N,/SWCLK*%
X107800000Y-105600000D03*
X107800000Y-117800000D03*
X115250000Y-118400000D03*
X107800000Y-116200000D03*
%TO.N,/SWDIO*%
X116750000Y-117000000D03*
X106200000Y-104800000D03*
%TO.N,LED_R*%
X110800000Y-123000000D03*
X102975000Y-112600000D03*
%TD*%
D14*
%TO.N,VBAT*%
X102100000Y-102250000D02*
X127750000Y-102250000D01*
X132000000Y-108500000D02*
X132000000Y-121400000D01*
X102100000Y-108500000D02*
X102100000Y-102250000D01*
X127750000Y-102250000D02*
X127750000Y-108500000D01*
X132000000Y-121400000D02*
X133400000Y-121400000D01*
X127750000Y-108500000D02*
X132000000Y-108500000D01*
D15*
%TO.N,GND*%
X114925000Y-112400000D02*
X125200000Y-112400000D01*
D16*
X125200000Y-123600000D02*
X140400000Y-123600000D01*
D17*
X100800000Y-113425000D02*
X100800000Y-119400000D01*
D15*
X114925000Y-112400000D02*
X110600000Y-112400000D01*
D16*
X125200000Y-112400000D02*
X125200000Y-123600000D01*
D15*
X110600000Y-112400000D02*
X110600000Y-110300000D01*
X114925000Y-108500000D02*
X114925000Y-112400000D01*
X114925000Y-108500000D02*
X114925000Y-112400000D01*
D17*
X100800000Y-119400000D02*
X101950000Y-119400000D01*
D18*
%TO.N,VCC*%
X108800000Y-107000000D02*
X108800000Y-111000000D01*
%TO.N,/BTN_SW*%
X105400000Y-121500000D02*
X111750000Y-121500000D01*
X105400000Y-118600000D02*
X105400000Y-121500000D01*
%TO.N,/SWCLK*%
X107800000Y-117800000D02*
X107800000Y-118400000D01*
X107800000Y-105600000D02*
X107800000Y-116200000D01*
X107800000Y-118400000D02*
X115250000Y-118400000D01*
%TO.N,/SWDIO*%
X106200000Y-117000000D02*
X116750000Y-117000000D01*
X106200000Y-104800000D02*
X106200000Y-117000000D01*
%TO.N,LED_R*%
X102975000Y-123000000D02*
X110800000Y-123000000D01*
X102975000Y-112600000D02*
X102975000Y-123000000D01*
%TD*%
D19*
X133400000Y-121400000D03*
X125200000Y-112400000D03*
X100800000Y-113425000D03*
X140400000Y-123600000D03*
X101950000Y-119400000D03*
X110600000Y-110300000D03*
X108800000Y-107000000D03*
X108800000Y-111000000D03*
X111750000Y-121500000D03*
X105400000Y-118600000D03*
X107800000Y-105600000D03*
X107800000Y-117800000D03*
X115250000Y-118400000D03*
X107800000Y-116200000D03*
X116750000Y-117000000D03*
X106200000Y-104800000D03*
X110800000Y-123000000D03*
X102975000Y-112600000D03*
M02*
