%TF.GenerationSoftware,KiCad,Pcbnew,9.0.3*%
%TF.CreationDate,2026-06-28T13:31:19-06:00*%
%TF.ProjectId,BleSafeDevice_DA14531MOD.kicad_pro,426c6553-6166-4654-9465-766963655f44,rev?*%
%TF.SameCoordinates,Original*%
%TF.FileFunction,Paste,Top*%
%TF.FilePolarity,Positive*%
%FSLAX46Y46*%
G04 Gerber Fmt 4.6, Leading zero omitted, Abs format (unit mm)*
G04 Created by KiCad (PCBNEW 9.0.3) date 2026-06-28 13:31:19*
%MOMM*%
%LPD*%
G01*
G04 APERTURE LIST*
G04 Aperture macros list*
%AMRoundRect*
0 Rectangle with rounded corners*
0 $1 Rounding radius*
0 $2 $3 $4 $5 $6 $7 $8 $9 X,Y pos of 4 corners*
0 Add a 4 corners polygon primitive as box body*
4,1,4,$2,$3,$4,$5,$6,$7,$8,$9,$2,$3,0*
0 Add four circle primitives for the rounded corners*
1,1,$1+$1,$2,$3*
1,1,$1+$1,$4,$5*
1,1,$1+$1,$6,$7*
1,1,$1+$1,$8,$9*
0 Add four rect primitives between the rounded corners*
20,1,$1+$1,$2,$3,$4,$5,0*
20,1,$1+$1,$4,$5,$6,$7,0*
20,1,$1+$1,$6,$7,$8,$9,0*
20,1,$1+$1,$8,$9,$2,$3,0*%
G04 Aperture macros list end*
%ADD10C,0.010000*%
%ADD11C,1.000000*%
%ADD12RoundRect,0.050000X-0.100000X-0.250000X0.100000X-0.250000X0.100000X0.250000X-0.100000X0.250000X0*%
%ADD13RoundRect,0.260000X-0.490000X-0.390000X0.490000X-0.390000X0.490000X0.390000X-0.490000X0.390000X0*%
%ADD14RoundRect,0.250000X-0.325000X-1.100000X0.325000X-1.100000X0.325000X1.100000X-0.325000X1.100000X0*%
%ADD15RoundRect,0.225000X0.250000X-0.225000X0.250000X0.225000X-0.250000X0.225000X-0.250000X-0.225000X0*%
%ADD16RoundRect,0.200000X-0.200000X-0.275000X0.200000X-0.275000X0.200000X0.275000X-0.200000X0.275000X0*%
%ADD17R,1.000000X0.700000*%
%ADD18RoundRect,0.200000X0.200000X0.275000X-0.200000X0.275000X-0.200000X-0.275000X0.200000X-0.275000X0*%
%ADD19RoundRect,0.250000X-0.250000X-0.475000X0.250000X-0.475000X0.250000X0.475000X-0.250000X0.475000X0*%
G04 APERTURE END LIST*
D10*
%TO.C,U4*%
X112750000Y-117500000D02*
X111250000Y-117500000D01*
X111224000Y-117499000D01*
X111198000Y-117497000D01*
X111172000Y-117494000D01*
X111146000Y-117489000D01*
X111121000Y-117483000D01*
X111095000Y-117476000D01*
X111071000Y-117467000D01*
X111047000Y-117457000D01*
X111023000Y-117446000D01*
X111000000Y-117433000D01*
X110978000Y-117419000D01*
X110956000Y-117405000D01*
X110935000Y-117389000D01*
X110915000Y-117372000D01*
X110896000Y-117354000D01*
X110878000Y-117335000D01*
X110861000Y-117315000D01*
X110845000Y-117294000D01*
X110831000Y-117272000D01*
X110817000Y-117250000D01*
X110804000Y-117227000D01*
X110793000Y-117203000D01*
X110783000Y-117179000D01*
X110774000Y-117155000D01*
X110767000Y-117129000D01*
X110761000Y-117104000D01*
X110756000Y-117078000D01*
X110753000Y-117052000D01*
X110751000Y-117026000D01*
X110750000Y-117000000D01*
X110751000Y-116974000D01*
X110753000Y-116948000D01*
X110756000Y-116922000D01*
X110761000Y-116896000D01*
X110767000Y-116871000D01*
X110774000Y-116845000D01*
X110783000Y-116821000D01*
X110793000Y-116797000D01*
X110804000Y-116773000D01*
X110817000Y-116750000D01*
X110831000Y-116728000D01*
X110845000Y-116706000D01*
X110861000Y-116685000D01*
X110878000Y-116665000D01*
X110896000Y-116646000D01*
X110915000Y-116628000D01*
X110935000Y-116611000D01*
X110956000Y-116595000D01*
X110978000Y-116581000D01*
X111000000Y-116567000D01*
X111023000Y-116554000D01*
X111047000Y-116543000D01*
X111071000Y-116533000D01*
X111095000Y-116524000D01*
X111121000Y-116517000D01*
X111146000Y-116511000D01*
X111172000Y-116506000D01*
X111198000Y-116503000D01*
X111224000Y-116501000D01*
X111250000Y-116500000D01*
X112750000Y-116500000D01*
X112750000Y-117500000D01*
G36*
X112750000Y-117500000D02*
G01*
X111250000Y-117500000D01*
X111224000Y-117499000D01*
X111198000Y-117497000D01*
X111172000Y-117494000D01*
X111146000Y-117489000D01*
X111121000Y-117483000D01*
X111095000Y-117476000D01*
X111071000Y-117467000D01*
X111047000Y-117457000D01*
X111023000Y-117446000D01*
X111000000Y-117433000D01*
X110978000Y-117419000D01*
X110956000Y-117405000D01*
X110935000Y-117389000D01*
X110915000Y-117372000D01*
X110896000Y-117354000D01*
X110878000Y-117335000D01*
X110861000Y-117315000D01*
X110845000Y-117294000D01*
X110831000Y-117272000D01*
X110817000Y-117250000D01*
X110804000Y-117227000D01*
X110793000Y-117203000D01*
X110783000Y-117179000D01*
X110774000Y-117155000D01*
X110767000Y-117129000D01*
X110761000Y-117104000D01*
X110756000Y-117078000D01*
X110753000Y-117052000D01*
X110751000Y-117026000D01*
X110750000Y-117000000D01*
X110751000Y-116974000D01*
X110753000Y-116948000D01*
X110756000Y-116922000D01*
X110761000Y-116896000D01*
X110767000Y-116871000D01*
X110774000Y-116845000D01*
X110783000Y-116821000D01*
X110793000Y-116797000D01*
X110804000Y-116773000D01*
X110817000Y-116750000D01*
X110831000Y-116728000D01*
X110845000Y-116706000D01*
X110861000Y-116685000D01*
X110878000Y-116665000D01*
X110896000Y-116646000D01*
X110915000Y-116628000D01*
X110935000Y-116611000D01*
X110956000Y-116595000D01*
X110978000Y-116581000D01*
X111000000Y-116567000D01*
X111023000Y-116554000D01*
X111047000Y-116543000D01*
X111071000Y-116533000D01*
X111095000Y-116524000D01*
X111121000Y-116517000D01*
X111146000Y-116511000D01*
X111172000Y-116506000D01*
X111198000Y-116503000D01*
X111224000Y-116501000D01*
X111250000Y-116500000D01*
X112750000Y-116500000D01*
X112750000Y-117500000D01*
G37*
X112750000Y-119000000D02*
X111250000Y-119000000D01*
X111224000Y-118999000D01*
X111198000Y-118997000D01*
X111172000Y-118994000D01*
X111146000Y-118989000D01*
X111121000Y-118983000D01*
X111095000Y-118976000D01*
X111071000Y-118967000D01*
X111047000Y-118957000D01*
X111023000Y-118946000D01*
X111000000Y-118933000D01*
X110978000Y-118919000D01*
X110956000Y-118905000D01*
X110935000Y-118889000D01*
X110915000Y-118872000D01*
X110896000Y-118854000D01*
X110878000Y-118835000D01*
X110861000Y-118815000D01*
X110845000Y-118794000D01*
X110831000Y-118772000D01*
X110817000Y-118750000D01*
X110804000Y-118727000D01*
X110793000Y-118703000D01*
X110783000Y-118679000D01*
X110774000Y-118655000D01*
X110767000Y-118629000D01*
X110761000Y-118604000D01*
X110756000Y-118578000D01*
X110753000Y-118552000D01*
X110751000Y-118526000D01*
X110750000Y-118500000D01*
X110751000Y-118474000D01*
X110753000Y-118448000D01*
X110756000Y-118422000D01*
X110761000Y-118396000D01*
X110767000Y-118371000D01*
X110774000Y-118345000D01*
X110783000Y-118321000D01*
X110793000Y-118297000D01*
X110804000Y-118273000D01*
X110817000Y-118250000D01*
X110831000Y-118228000D01*
X110845000Y-118206000D01*
X110861000Y-118185000D01*
X110878000Y-118165000D01*
X110896000Y-118146000D01*
X110915000Y-118128000D01*
X110935000Y-118111000D01*
X110956000Y-118095000D01*
X110978000Y-118081000D01*
X111000000Y-118067000D01*
X111023000Y-118054000D01*
X111047000Y-118043000D01*
X111071000Y-118033000D01*
X111095000Y-118024000D01*
X111121000Y-118017000D01*
X111146000Y-118011000D01*
X111172000Y-118006000D01*
X111198000Y-118003000D01*
X111224000Y-118001000D01*
X111250000Y-118000000D01*
X112750000Y-118000000D01*
X112750000Y-119000000D01*
G36*
X112750000Y-119000000D02*
G01*
X111250000Y-119000000D01*
X111224000Y-118999000D01*
X111198000Y-118997000D01*
X111172000Y-118994000D01*
X111146000Y-118989000D01*
X111121000Y-118983000D01*
X111095000Y-118976000D01*
X111071000Y-118967000D01*
X111047000Y-118957000D01*
X111023000Y-118946000D01*
X111000000Y-118933000D01*
X110978000Y-118919000D01*
X110956000Y-118905000D01*
X110935000Y-118889000D01*
X110915000Y-118872000D01*
X110896000Y-118854000D01*
X110878000Y-118835000D01*
X110861000Y-118815000D01*
X110845000Y-118794000D01*
X110831000Y-118772000D01*
X110817000Y-118750000D01*
X110804000Y-118727000D01*
X110793000Y-118703000D01*
X110783000Y-118679000D01*
X110774000Y-118655000D01*
X110767000Y-118629000D01*
X110761000Y-118604000D01*
X110756000Y-118578000D01*
X110753000Y-118552000D01*
X110751000Y-118526000D01*
X110750000Y-118500000D01*
X110751000Y-118474000D01*
X110753000Y-118448000D01*
X110756000Y-118422000D01*
X110761000Y-118396000D01*
X110767000Y-118371000D01*
X110774000Y-118345000D01*
X110783000Y-118321000D01*
X110793000Y-118297000D01*
X110804000Y-118273000D01*
X110817000Y-118250000D01*
X110831000Y-118228000D01*
X110845000Y-118206000D01*
X110861000Y-118185000D01*
X110878000Y-118165000D01*
X110896000Y-118146000D01*
X110915000Y-118128000D01*
X110935000Y-118111000D01*
X110956000Y-118095000D01*
X110978000Y-118081000D01*
X111000000Y-118067000D01*
X111023000Y-118054000D01*
X111047000Y-118043000D01*
X111071000Y-118033000D01*
X111095000Y-118024000D01*
X111121000Y-118017000D01*
X111146000Y-118011000D01*
X111172000Y-118006000D01*
X111198000Y-118003000D01*
X111224000Y-118001000D01*
X111250000Y-118000000D01*
X112750000Y-118000000D01*
X112750000Y-119000000D01*
G37*
X112750000Y-120500000D02*
X111250000Y-120500000D01*
X111224000Y-120499000D01*
X111198000Y-120497000D01*
X111172000Y-120494000D01*
X111146000Y-120489000D01*
X111121000Y-120483000D01*
X111095000Y-120476000D01*
X111071000Y-120467000D01*
X111047000Y-120457000D01*
X111023000Y-120446000D01*
X111000000Y-120433000D01*
X110978000Y-120419000D01*
X110956000Y-120405000D01*
X110935000Y-120389000D01*
X110915000Y-120372000D01*
X110896000Y-120354000D01*
X110878000Y-120335000D01*
X110861000Y-120315000D01*
X110845000Y-120294000D01*
X110831000Y-120272000D01*
X110817000Y-120250000D01*
X110804000Y-120227000D01*
X110793000Y-120203000D01*
X110783000Y-120179000D01*
X110774000Y-120155000D01*
X110767000Y-120129000D01*
X110761000Y-120104000D01*
X110756000Y-120078000D01*
X110753000Y-120052000D01*
X110751000Y-120026000D01*
X110750000Y-120000000D01*
X110751000Y-119974000D01*
X110753000Y-119948000D01*
X110756000Y-119922000D01*
X110761000Y-119896000D01*
X110767000Y-119871000D01*
X110774000Y-119845000D01*
X110783000Y-119821000D01*
X110793000Y-119797000D01*
X110804000Y-119773000D01*
X110817000Y-119750000D01*
X110831000Y-119728000D01*
X110845000Y-119706000D01*
X110861000Y-119685000D01*
X110878000Y-119665000D01*
X110896000Y-119646000D01*
X110915000Y-119628000D01*
X110935000Y-119611000D01*
X110956000Y-119595000D01*
X110978000Y-119581000D01*
X111000000Y-119567000D01*
X111023000Y-119554000D01*
X111047000Y-119543000D01*
X111071000Y-119533000D01*
X111095000Y-119524000D01*
X111121000Y-119517000D01*
X111146000Y-119511000D01*
X111172000Y-119506000D01*
X111198000Y-119503000D01*
X111224000Y-119501000D01*
X111250000Y-119500000D01*
X112750000Y-119500000D01*
X112750000Y-120500000D01*
G36*
X112750000Y-120500000D02*
G01*
X111250000Y-120500000D01*
X111224000Y-120499000D01*
X111198000Y-120497000D01*
X111172000Y-120494000D01*
X111146000Y-120489000D01*
X111121000Y-120483000D01*
X111095000Y-120476000D01*
X111071000Y-120467000D01*
X111047000Y-120457000D01*
X111023000Y-120446000D01*
X111000000Y-120433000D01*
X110978000Y-120419000D01*
X110956000Y-120405000D01*
X110935000Y-120389000D01*
X110915000Y-120372000D01*
X110896000Y-120354000D01*
X110878000Y-120335000D01*
X110861000Y-120315000D01*
X110845000Y-120294000D01*
X110831000Y-120272000D01*
X110817000Y-120250000D01*
X110804000Y-120227000D01*
X110793000Y-120203000D01*
X110783000Y-120179000D01*
X110774000Y-120155000D01*
X110767000Y-120129000D01*
X110761000Y-120104000D01*
X110756000Y-120078000D01*
X110753000Y-120052000D01*
X110751000Y-120026000D01*
X110750000Y-120000000D01*
X110751000Y-119974000D01*
X110753000Y-119948000D01*
X110756000Y-119922000D01*
X110761000Y-119896000D01*
X110767000Y-119871000D01*
X110774000Y-119845000D01*
X110783000Y-119821000D01*
X110793000Y-119797000D01*
X110804000Y-119773000D01*
X110817000Y-119750000D01*
X110831000Y-119728000D01*
X110845000Y-119706000D01*
X110861000Y-119685000D01*
X110878000Y-119665000D01*
X110896000Y-119646000D01*
X110915000Y-119628000D01*
X110935000Y-119611000D01*
X110956000Y-119595000D01*
X110978000Y-119581000D01*
X111000000Y-119567000D01*
X111023000Y-119554000D01*
X111047000Y-119543000D01*
X111071000Y-119533000D01*
X111095000Y-119524000D01*
X111121000Y-119517000D01*
X111146000Y-119511000D01*
X111172000Y-119506000D01*
X111198000Y-119503000D01*
X111224000Y-119501000D01*
X111250000Y-119500000D01*
X112750000Y-119500000D01*
X112750000Y-120500000D01*
G37*
X112750000Y-122000000D02*
X111250000Y-122000000D01*
X111224000Y-121999000D01*
X111198000Y-121997000D01*
X111172000Y-121994000D01*
X111146000Y-121989000D01*
X111121000Y-121983000D01*
X111095000Y-121976000D01*
X111071000Y-121967000D01*
X111047000Y-121957000D01*
X111023000Y-121946000D01*
X111000000Y-121933000D01*
X110978000Y-121919000D01*
X110956000Y-121905000D01*
X110935000Y-121889000D01*
X110915000Y-121872000D01*
X110896000Y-121854000D01*
X110878000Y-121835000D01*
X110861000Y-121815000D01*
X110845000Y-121794000D01*
X110831000Y-121772000D01*
X110817000Y-121750000D01*
X110804000Y-121727000D01*
X110793000Y-121703000D01*
X110783000Y-121679000D01*
X110774000Y-121655000D01*
X110767000Y-121629000D01*
X110761000Y-121604000D01*
X110756000Y-121578000D01*
X110753000Y-121552000D01*
X110751000Y-121526000D01*
X110750000Y-121500000D01*
X110751000Y-121474000D01*
X110753000Y-121448000D01*
X110756000Y-121422000D01*
X110761000Y-121396000D01*
X110767000Y-121371000D01*
X110774000Y-121345000D01*
X110783000Y-121321000D01*
X110793000Y-121297000D01*
X110804000Y-121273000D01*
X110817000Y-121250000D01*
X110831000Y-121228000D01*
X110845000Y-121206000D01*
X110861000Y-121185000D01*
X110878000Y-121165000D01*
X110896000Y-121146000D01*
X110915000Y-121128000D01*
X110935000Y-121111000D01*
X110956000Y-121095000D01*
X110978000Y-121081000D01*
X111000000Y-121067000D01*
X111023000Y-121054000D01*
X111047000Y-121043000D01*
X111071000Y-121033000D01*
X111095000Y-121024000D01*
X111121000Y-121017000D01*
X111146000Y-121011000D01*
X111172000Y-121006000D01*
X111198000Y-121003000D01*
X111224000Y-121001000D01*
X111250000Y-121000000D01*
X112750000Y-121000000D01*
X112750000Y-122000000D01*
G36*
X112750000Y-122000000D02*
G01*
X111250000Y-122000000D01*
X111224000Y-121999000D01*
X111198000Y-121997000D01*
X111172000Y-121994000D01*
X111146000Y-121989000D01*
X111121000Y-121983000D01*
X111095000Y-121976000D01*
X111071000Y-121967000D01*
X111047000Y-121957000D01*
X111023000Y-121946000D01*
X111000000Y-121933000D01*
X110978000Y-121919000D01*
X110956000Y-121905000D01*
X110935000Y-121889000D01*
X110915000Y-121872000D01*
X110896000Y-121854000D01*
X110878000Y-121835000D01*
X110861000Y-121815000D01*
X110845000Y-121794000D01*
X110831000Y-121772000D01*
X110817000Y-121750000D01*
X110804000Y-121727000D01*
X110793000Y-121703000D01*
X110783000Y-121679000D01*
X110774000Y-121655000D01*
X110767000Y-121629000D01*
X110761000Y-121604000D01*
X110756000Y-121578000D01*
X110753000Y-121552000D01*
X110751000Y-121526000D01*
X110750000Y-121500000D01*
X110751000Y-121474000D01*
X110753000Y-121448000D01*
X110756000Y-121422000D01*
X110761000Y-121396000D01*
X110767000Y-121371000D01*
X110774000Y-121345000D01*
X110783000Y-121321000D01*
X110793000Y-121297000D01*
X110804000Y-121273000D01*
X110817000Y-121250000D01*
X110831000Y-121228000D01*
X110845000Y-121206000D01*
X110861000Y-121185000D01*
X110878000Y-121165000D01*
X110896000Y-121146000D01*
X110915000Y-121128000D01*
X110935000Y-121111000D01*
X110956000Y-121095000D01*
X110978000Y-121081000D01*
X111000000Y-121067000D01*
X111023000Y-121054000D01*
X111047000Y-121043000D01*
X111071000Y-121033000D01*
X111095000Y-121024000D01*
X111121000Y-121017000D01*
X111146000Y-121011000D01*
X111172000Y-121006000D01*
X111198000Y-121003000D01*
X111224000Y-121001000D01*
X111250000Y-121000000D01*
X112750000Y-121000000D01*
X112750000Y-122000000D01*
G37*
X112750000Y-123500000D02*
X111250000Y-123500000D01*
X111224000Y-123499000D01*
X111198000Y-123497000D01*
X111172000Y-123494000D01*
X111146000Y-123489000D01*
X111121000Y-123483000D01*
X111095000Y-123476000D01*
X111071000Y-123467000D01*
X111047000Y-123457000D01*
X111023000Y-123446000D01*
X111000000Y-123433000D01*
X110978000Y-123419000D01*
X110956000Y-123405000D01*
X110935000Y-123389000D01*
X110915000Y-123372000D01*
X110896000Y-123354000D01*
X110878000Y-123335000D01*
X110861000Y-123315000D01*
X110845000Y-123294000D01*
X110831000Y-123272000D01*
X110817000Y-123250000D01*
X110804000Y-123227000D01*
X110793000Y-123203000D01*
X110783000Y-123179000D01*
X110774000Y-123155000D01*
X110767000Y-123129000D01*
X110761000Y-123104000D01*
X110756000Y-123078000D01*
X110753000Y-123052000D01*
X110751000Y-123026000D01*
X110750000Y-123000000D01*
X110751000Y-122974000D01*
X110753000Y-122948000D01*
X110756000Y-122922000D01*
X110761000Y-122896000D01*
X110767000Y-122871000D01*
X110774000Y-122845000D01*
X110783000Y-122821000D01*
X110793000Y-122797000D01*
X110804000Y-122773000D01*
X110817000Y-122750000D01*
X110831000Y-122728000D01*
X110845000Y-122706000D01*
X110861000Y-122685000D01*
X110878000Y-122665000D01*
X110896000Y-122646000D01*
X110915000Y-122628000D01*
X110935000Y-122611000D01*
X110956000Y-122595000D01*
X110978000Y-122581000D01*
X111000000Y-122567000D01*
X111023000Y-122554000D01*
X111047000Y-122543000D01*
X111071000Y-122533000D01*
X111095000Y-122524000D01*
X111121000Y-122517000D01*
X111146000Y-122511000D01*
X111172000Y-122506000D01*
X111198000Y-122503000D01*
X111224000Y-122501000D01*
X111250000Y-122500000D01*
X112750000Y-122500000D01*
X112750000Y-123500000D01*
G36*
X112750000Y-123500000D02*
G01*
X111250000Y-123500000D01*
X111224000Y-123499000D01*
X111198000Y-123497000D01*
X111172000Y-123494000D01*
X111146000Y-123489000D01*
X111121000Y-123483000D01*
X111095000Y-123476000D01*
X111071000Y-123467000D01*
X111047000Y-123457000D01*
X111023000Y-123446000D01*
X111000000Y-123433000D01*
X110978000Y-123419000D01*
X110956000Y-123405000D01*
X110935000Y-123389000D01*
X110915000Y-123372000D01*
X110896000Y-123354000D01*
X110878000Y-123335000D01*
X110861000Y-123315000D01*
X110845000Y-123294000D01*
X110831000Y-123272000D01*
X110817000Y-123250000D01*
X110804000Y-123227000D01*
X110793000Y-123203000D01*
X110783000Y-123179000D01*
X110774000Y-123155000D01*
X110767000Y-123129000D01*
X110761000Y-123104000D01*
X110756000Y-123078000D01*
X110753000Y-123052000D01*
X110751000Y-123026000D01*
X110750000Y-123000000D01*
X110751000Y-122974000D01*
X110753000Y-122948000D01*
X110756000Y-122922000D01*
X110761000Y-122896000D01*
X110767000Y-122871000D01*
X110774000Y-122845000D01*
X110783000Y-122821000D01*
X110793000Y-122797000D01*
X110804000Y-122773000D01*
X110817000Y-122750000D01*
X110831000Y-122728000D01*
X110845000Y-122706000D01*
X110861000Y-122685000D01*
X110878000Y-122665000D01*
X110896000Y-122646000D01*
X110915000Y-122628000D01*
X110935000Y-122611000D01*
X110956000Y-122595000D01*
X110978000Y-122581000D01*
X111000000Y-122567000D01*
X111023000Y-122554000D01*
X111047000Y-122543000D01*
X111071000Y-122533000D01*
X111095000Y-122524000D01*
X111121000Y-122517000D01*
X111146000Y-122511000D01*
X111172000Y-122506000D01*
X111198000Y-122503000D01*
X111224000Y-122501000D01*
X111250000Y-122500000D01*
X112750000Y-122500000D01*
X112750000Y-123500000D01*
G37*
X113776000Y-114251000D02*
X113802000Y-114253000D01*
X113828000Y-114256000D01*
X113854000Y-114261000D01*
X113879000Y-114267000D01*
X113905000Y-114274000D01*
X113929000Y-114283000D01*
X113953000Y-114293000D01*
X113977000Y-114304000D01*
X114000000Y-114317000D01*
X114022000Y-114331000D01*
X114044000Y-114345000D01*
X114065000Y-114361000D01*
X114085000Y-114378000D01*
X114104000Y-114396000D01*
X114122000Y-114415000D01*
X114139000Y-114435000D01*
X114155000Y-114456000D01*
X114169000Y-114478000D01*
X114183000Y-114500000D01*
X114196000Y-114523000D01*
X114207000Y-114547000D01*
X114217000Y-114571000D01*
X114226000Y-114595000D01*
X114233000Y-114621000D01*
X114239000Y-114646000D01*
X114244000Y-114672000D01*
X114247000Y-114698000D01*
X114249000Y-114724000D01*
X114250000Y-114750000D01*
X114250000Y-116250000D01*
X113250000Y-116250000D01*
X113250000Y-114750000D01*
X113251000Y-114724000D01*
X113253000Y-114698000D01*
X113256000Y-114672000D01*
X113261000Y-114646000D01*
X113267000Y-114621000D01*
X113274000Y-114595000D01*
X113283000Y-114571000D01*
X113293000Y-114547000D01*
X113304000Y-114523000D01*
X113317000Y-114500000D01*
X113331000Y-114478000D01*
X113345000Y-114456000D01*
X113361000Y-114435000D01*
X113378000Y-114415000D01*
X113396000Y-114396000D01*
X113415000Y-114378000D01*
X113435000Y-114361000D01*
X113456000Y-114345000D01*
X113478000Y-114331000D01*
X113500000Y-114317000D01*
X113523000Y-114304000D01*
X113547000Y-114293000D01*
X113571000Y-114283000D01*
X113595000Y-114274000D01*
X113621000Y-114267000D01*
X113646000Y-114261000D01*
X113672000Y-114256000D01*
X113698000Y-114253000D01*
X113724000Y-114251000D01*
X113750000Y-114250000D01*
X113776000Y-114251000D01*
G36*
X113776000Y-114251000D02*
G01*
X113802000Y-114253000D01*
X113828000Y-114256000D01*
X113854000Y-114261000D01*
X113879000Y-114267000D01*
X113905000Y-114274000D01*
X113929000Y-114283000D01*
X113953000Y-114293000D01*
X113977000Y-114304000D01*
X114000000Y-114317000D01*
X114022000Y-114331000D01*
X114044000Y-114345000D01*
X114065000Y-114361000D01*
X114085000Y-114378000D01*
X114104000Y-114396000D01*
X114122000Y-114415000D01*
X114139000Y-114435000D01*
X114155000Y-114456000D01*
X114169000Y-114478000D01*
X114183000Y-114500000D01*
X114196000Y-114523000D01*
X114207000Y-114547000D01*
X114217000Y-114571000D01*
X114226000Y-114595000D01*
X114233000Y-114621000D01*
X114239000Y-114646000D01*
X114244000Y-114672000D01*
X114247000Y-114698000D01*
X114249000Y-114724000D01*
X114250000Y-114750000D01*
X114250000Y-116250000D01*
X113250000Y-116250000D01*
X113250000Y-114750000D01*
X113251000Y-114724000D01*
X113253000Y-114698000D01*
X113256000Y-114672000D01*
X113261000Y-114646000D01*
X113267000Y-114621000D01*
X113274000Y-114595000D01*
X113283000Y-114571000D01*
X113293000Y-114547000D01*
X113304000Y-114523000D01*
X113317000Y-114500000D01*
X113331000Y-114478000D01*
X113345000Y-114456000D01*
X113361000Y-114435000D01*
X113378000Y-114415000D01*
X113396000Y-114396000D01*
X113415000Y-114378000D01*
X113435000Y-114361000D01*
X113456000Y-114345000D01*
X113478000Y-114331000D01*
X113500000Y-114317000D01*
X113523000Y-114304000D01*
X113547000Y-114293000D01*
X113571000Y-114283000D01*
X113595000Y-114274000D01*
X113621000Y-114267000D01*
X113646000Y-114261000D01*
X113672000Y-114256000D01*
X113698000Y-114253000D01*
X113724000Y-114251000D01*
X113750000Y-114250000D01*
X113776000Y-114251000D01*
G37*
X115276000Y-114251000D02*
X115302000Y-114253000D01*
X115328000Y-114256000D01*
X115354000Y-114261000D01*
X115379000Y-114267000D01*
X115405000Y-114274000D01*
X115429000Y-114283000D01*
X115453000Y-114293000D01*
X115477000Y-114304000D01*
X115500000Y-114317000D01*
X115522000Y-114331000D01*
X115544000Y-114345000D01*
X115565000Y-114361000D01*
X115585000Y-114378000D01*
X115604000Y-114396000D01*
X115622000Y-114415000D01*
X115639000Y-114435000D01*
X115655000Y-114456000D01*
X115669000Y-114478000D01*
X115683000Y-114500000D01*
X115696000Y-114523000D01*
X115707000Y-114547000D01*
X115717000Y-114571000D01*
X115726000Y-114595000D01*
X115733000Y-114621000D01*
X115739000Y-114646000D01*
X115744000Y-114672000D01*
X115747000Y-114698000D01*
X115749000Y-114724000D01*
X115750000Y-114750000D01*
X115750000Y-116250000D01*
X114750000Y-116250000D01*
X114750000Y-114750000D01*
X114751000Y-114724000D01*
X114753000Y-114698000D01*
X114756000Y-114672000D01*
X114761000Y-114646000D01*
X114767000Y-114621000D01*
X114774000Y-114595000D01*
X114783000Y-114571000D01*
X114793000Y-114547000D01*
X114804000Y-114523000D01*
X114817000Y-114500000D01*
X114831000Y-114478000D01*
X114845000Y-114456000D01*
X114861000Y-114435000D01*
X114878000Y-114415000D01*
X114896000Y-114396000D01*
X114915000Y-114378000D01*
X114935000Y-114361000D01*
X114956000Y-114345000D01*
X114978000Y-114331000D01*
X115000000Y-114317000D01*
X115023000Y-114304000D01*
X115047000Y-114293000D01*
X115071000Y-114283000D01*
X115095000Y-114274000D01*
X115121000Y-114267000D01*
X115146000Y-114261000D01*
X115172000Y-114256000D01*
X115198000Y-114253000D01*
X115224000Y-114251000D01*
X115250000Y-114250000D01*
X115276000Y-114251000D01*
G36*
X115276000Y-114251000D02*
G01*
X115302000Y-114253000D01*
X115328000Y-114256000D01*
X115354000Y-114261000D01*
X115379000Y-114267000D01*
X115405000Y-114274000D01*
X115429000Y-114283000D01*
X115453000Y-114293000D01*
X115477000Y-114304000D01*
X115500000Y-114317000D01*
X115522000Y-114331000D01*
X115544000Y-114345000D01*
X115565000Y-114361000D01*
X115585000Y-114378000D01*
X115604000Y-114396000D01*
X115622000Y-114415000D01*
X115639000Y-114435000D01*
X115655000Y-114456000D01*
X115669000Y-114478000D01*
X115683000Y-114500000D01*
X115696000Y-114523000D01*
X115707000Y-114547000D01*
X115717000Y-114571000D01*
X115726000Y-114595000D01*
X115733000Y-114621000D01*
X115739000Y-114646000D01*
X115744000Y-114672000D01*
X115747000Y-114698000D01*
X115749000Y-114724000D01*
X115750000Y-114750000D01*
X115750000Y-116250000D01*
X114750000Y-116250000D01*
X114750000Y-114750000D01*
X114751000Y-114724000D01*
X114753000Y-114698000D01*
X114756000Y-114672000D01*
X114761000Y-114646000D01*
X114767000Y-114621000D01*
X114774000Y-114595000D01*
X114783000Y-114571000D01*
X114793000Y-114547000D01*
X114804000Y-114523000D01*
X114817000Y-114500000D01*
X114831000Y-114478000D01*
X114845000Y-114456000D01*
X114861000Y-114435000D01*
X114878000Y-114415000D01*
X114896000Y-114396000D01*
X114915000Y-114378000D01*
X114935000Y-114361000D01*
X114956000Y-114345000D01*
X114978000Y-114331000D01*
X115000000Y-114317000D01*
X115023000Y-114304000D01*
X115047000Y-114293000D01*
X115071000Y-114283000D01*
X115095000Y-114274000D01*
X115121000Y-114267000D01*
X115146000Y-114261000D01*
X115172000Y-114256000D01*
X115198000Y-114253000D01*
X115224000Y-114251000D01*
X115250000Y-114250000D01*
X115276000Y-114251000D01*
G37*
X116776000Y-114251000D02*
X116802000Y-114253000D01*
X116828000Y-114256000D01*
X116854000Y-114261000D01*
X116879000Y-114267000D01*
X116905000Y-114274000D01*
X116929000Y-114283000D01*
X116953000Y-114293000D01*
X116977000Y-114304000D01*
X117000000Y-114317000D01*
X117022000Y-114331000D01*
X117044000Y-114345000D01*
X117065000Y-114361000D01*
X117085000Y-114378000D01*
X117104000Y-114396000D01*
X117122000Y-114415000D01*
X117139000Y-114435000D01*
X117155000Y-114456000D01*
X117169000Y-114478000D01*
X117183000Y-114500000D01*
X117196000Y-114523000D01*
X117207000Y-114547000D01*
X117217000Y-114571000D01*
X117226000Y-114595000D01*
X117233000Y-114621000D01*
X117239000Y-114646000D01*
X117244000Y-114672000D01*
X117247000Y-114698000D01*
X117249000Y-114724000D01*
X117250000Y-114750000D01*
X117250000Y-116250000D01*
X116250000Y-116250000D01*
X116250000Y-114750000D01*
X116251000Y-114724000D01*
X116253000Y-114698000D01*
X116256000Y-114672000D01*
X116261000Y-114646000D01*
X116267000Y-114621000D01*
X116274000Y-114595000D01*
X116283000Y-114571000D01*
X116293000Y-114547000D01*
X116304000Y-114523000D01*
X116317000Y-114500000D01*
X116331000Y-114478000D01*
X116345000Y-114456000D01*
X116361000Y-114435000D01*
X116378000Y-114415000D01*
X116396000Y-114396000D01*
X116415000Y-114378000D01*
X116435000Y-114361000D01*
X116456000Y-114345000D01*
X116478000Y-114331000D01*
X116500000Y-114317000D01*
X116523000Y-114304000D01*
X116547000Y-114293000D01*
X116571000Y-114283000D01*
X116595000Y-114274000D01*
X116621000Y-114267000D01*
X116646000Y-114261000D01*
X116672000Y-114256000D01*
X116698000Y-114253000D01*
X116724000Y-114251000D01*
X116750000Y-114250000D01*
X116776000Y-114251000D01*
G36*
X116776000Y-114251000D02*
G01*
X116802000Y-114253000D01*
X116828000Y-114256000D01*
X116854000Y-114261000D01*
X116879000Y-114267000D01*
X116905000Y-114274000D01*
X116929000Y-114283000D01*
X116953000Y-114293000D01*
X116977000Y-114304000D01*
X117000000Y-114317000D01*
X117022000Y-114331000D01*
X117044000Y-114345000D01*
X117065000Y-114361000D01*
X117085000Y-114378000D01*
X117104000Y-114396000D01*
X117122000Y-114415000D01*
X117139000Y-114435000D01*
X117155000Y-114456000D01*
X117169000Y-114478000D01*
X117183000Y-114500000D01*
X117196000Y-114523000D01*
X117207000Y-114547000D01*
X117217000Y-114571000D01*
X117226000Y-114595000D01*
X117233000Y-114621000D01*
X117239000Y-114646000D01*
X117244000Y-114672000D01*
X117247000Y-114698000D01*
X117249000Y-114724000D01*
X117250000Y-114750000D01*
X117250000Y-116250000D01*
X116250000Y-116250000D01*
X116250000Y-114750000D01*
X116251000Y-114724000D01*
X116253000Y-114698000D01*
X116256000Y-114672000D01*
X116261000Y-114646000D01*
X116267000Y-114621000D01*
X116274000Y-114595000D01*
X116283000Y-114571000D01*
X116293000Y-114547000D01*
X116304000Y-114523000D01*
X116317000Y-114500000D01*
X116331000Y-114478000D01*
X116345000Y-114456000D01*
X116361000Y-114435000D01*
X116378000Y-114415000D01*
X116396000Y-114396000D01*
X116415000Y-114378000D01*
X116435000Y-114361000D01*
X116456000Y-114345000D01*
X116478000Y-114331000D01*
X116500000Y-114317000D01*
X116523000Y-114304000D01*
X116547000Y-114293000D01*
X116571000Y-114283000D01*
X116595000Y-114274000D01*
X116621000Y-114267000D01*
X116646000Y-114261000D01*
X116672000Y-114256000D01*
X116698000Y-114253000D01*
X116724000Y-114251000D01*
X116750000Y-114250000D01*
X116776000Y-114251000D01*
G37*
X118276000Y-114251000D02*
X118302000Y-114253000D01*
X118328000Y-114256000D01*
X118354000Y-114261000D01*
X118379000Y-114267000D01*
X118405000Y-114274000D01*
X118429000Y-114283000D01*
X118453000Y-114293000D01*
X118477000Y-114304000D01*
X118500000Y-114317000D01*
X118522000Y-114331000D01*
X118544000Y-114345000D01*
X118565000Y-114361000D01*
X118585000Y-114378000D01*
X118604000Y-114396000D01*
X118622000Y-114415000D01*
X118639000Y-114435000D01*
X118655000Y-114456000D01*
X118669000Y-114478000D01*
X118683000Y-114500000D01*
X118696000Y-114523000D01*
X118707000Y-114547000D01*
X118717000Y-114571000D01*
X118726000Y-114595000D01*
X118733000Y-114621000D01*
X118739000Y-114646000D01*
X118744000Y-114672000D01*
X118747000Y-114698000D01*
X118749000Y-114724000D01*
X118750000Y-114750000D01*
X118750000Y-116250000D01*
X117750000Y-116250000D01*
X117750000Y-114750000D01*
X117751000Y-114724000D01*
X117753000Y-114698000D01*
X117756000Y-114672000D01*
X117761000Y-114646000D01*
X117767000Y-114621000D01*
X117774000Y-114595000D01*
X117783000Y-114571000D01*
X117793000Y-114547000D01*
X117804000Y-114523000D01*
X117817000Y-114500000D01*
X117831000Y-114478000D01*
X117845000Y-114456000D01*
X117861000Y-114435000D01*
X117878000Y-114415000D01*
X117896000Y-114396000D01*
X117915000Y-114378000D01*
X117935000Y-114361000D01*
X117956000Y-114345000D01*
X117978000Y-114331000D01*
X118000000Y-114317000D01*
X118023000Y-114304000D01*
X118047000Y-114293000D01*
X118071000Y-114283000D01*
X118095000Y-114274000D01*
X118121000Y-114267000D01*
X118146000Y-114261000D01*
X118172000Y-114256000D01*
X118198000Y-114253000D01*
X118224000Y-114251000D01*
X118250000Y-114250000D01*
X118276000Y-114251000D01*
G36*
X118276000Y-114251000D02*
G01*
X118302000Y-114253000D01*
X118328000Y-114256000D01*
X118354000Y-114261000D01*
X118379000Y-114267000D01*
X118405000Y-114274000D01*
X118429000Y-114283000D01*
X118453000Y-114293000D01*
X118477000Y-114304000D01*
X118500000Y-114317000D01*
X118522000Y-114331000D01*
X118544000Y-114345000D01*
X118565000Y-114361000D01*
X118585000Y-114378000D01*
X118604000Y-114396000D01*
X118622000Y-114415000D01*
X118639000Y-114435000D01*
X118655000Y-114456000D01*
X118669000Y-114478000D01*
X118683000Y-114500000D01*
X118696000Y-114523000D01*
X118707000Y-114547000D01*
X118717000Y-114571000D01*
X118726000Y-114595000D01*
X118733000Y-114621000D01*
X118739000Y-114646000D01*
X118744000Y-114672000D01*
X118747000Y-114698000D01*
X118749000Y-114724000D01*
X118750000Y-114750000D01*
X118750000Y-116250000D01*
X117750000Y-116250000D01*
X117750000Y-114750000D01*
X117751000Y-114724000D01*
X117753000Y-114698000D01*
X117756000Y-114672000D01*
X117761000Y-114646000D01*
X117767000Y-114621000D01*
X117774000Y-114595000D01*
X117783000Y-114571000D01*
X117793000Y-114547000D01*
X117804000Y-114523000D01*
X117817000Y-114500000D01*
X117831000Y-114478000D01*
X117845000Y-114456000D01*
X117861000Y-114435000D01*
X117878000Y-114415000D01*
X117896000Y-114396000D01*
X117915000Y-114378000D01*
X117935000Y-114361000D01*
X117956000Y-114345000D01*
X117978000Y-114331000D01*
X118000000Y-114317000D01*
X118023000Y-114304000D01*
X118047000Y-114293000D01*
X118071000Y-114283000D01*
X118095000Y-114274000D01*
X118121000Y-114267000D01*
X118146000Y-114261000D01*
X118172000Y-114256000D01*
X118198000Y-114253000D01*
X118224000Y-114251000D01*
X118250000Y-114250000D01*
X118276000Y-114251000D01*
G37*
X119776000Y-114251000D02*
X119802000Y-114253000D01*
X119828000Y-114256000D01*
X119854000Y-114261000D01*
X119879000Y-114267000D01*
X119905000Y-114274000D01*
X119929000Y-114283000D01*
X119953000Y-114293000D01*
X119977000Y-114304000D01*
X120000000Y-114317000D01*
X120022000Y-114331000D01*
X120044000Y-114345000D01*
X120065000Y-114361000D01*
X120085000Y-114378000D01*
X120104000Y-114396000D01*
X120122000Y-114415000D01*
X120139000Y-114435000D01*
X120155000Y-114456000D01*
X120169000Y-114478000D01*
X120183000Y-114500000D01*
X120196000Y-114523000D01*
X120207000Y-114547000D01*
X120217000Y-114571000D01*
X120226000Y-114595000D01*
X120233000Y-114621000D01*
X120239000Y-114646000D01*
X120244000Y-114672000D01*
X120247000Y-114698000D01*
X120249000Y-114724000D01*
X120250000Y-114750000D01*
X120250000Y-116250000D01*
X119250000Y-116250000D01*
X119250000Y-114750000D01*
X119251000Y-114724000D01*
X119253000Y-114698000D01*
X119256000Y-114672000D01*
X119261000Y-114646000D01*
X119267000Y-114621000D01*
X119274000Y-114595000D01*
X119283000Y-114571000D01*
X119293000Y-114547000D01*
X119304000Y-114523000D01*
X119317000Y-114500000D01*
X119331000Y-114478000D01*
X119345000Y-114456000D01*
X119361000Y-114435000D01*
X119378000Y-114415000D01*
X119396000Y-114396000D01*
X119415000Y-114378000D01*
X119435000Y-114361000D01*
X119456000Y-114345000D01*
X119478000Y-114331000D01*
X119500000Y-114317000D01*
X119523000Y-114304000D01*
X119547000Y-114293000D01*
X119571000Y-114283000D01*
X119595000Y-114274000D01*
X119621000Y-114267000D01*
X119646000Y-114261000D01*
X119672000Y-114256000D01*
X119698000Y-114253000D01*
X119724000Y-114251000D01*
X119750000Y-114250000D01*
X119776000Y-114251000D01*
G36*
X119776000Y-114251000D02*
G01*
X119802000Y-114253000D01*
X119828000Y-114256000D01*
X119854000Y-114261000D01*
X119879000Y-114267000D01*
X119905000Y-114274000D01*
X119929000Y-114283000D01*
X119953000Y-114293000D01*
X119977000Y-114304000D01*
X120000000Y-114317000D01*
X120022000Y-114331000D01*
X120044000Y-114345000D01*
X120065000Y-114361000D01*
X120085000Y-114378000D01*
X120104000Y-114396000D01*
X120122000Y-114415000D01*
X120139000Y-114435000D01*
X120155000Y-114456000D01*
X120169000Y-114478000D01*
X120183000Y-114500000D01*
X120196000Y-114523000D01*
X120207000Y-114547000D01*
X120217000Y-114571000D01*
X120226000Y-114595000D01*
X120233000Y-114621000D01*
X120239000Y-114646000D01*
X120244000Y-114672000D01*
X120247000Y-114698000D01*
X120249000Y-114724000D01*
X120250000Y-114750000D01*
X120250000Y-116250000D01*
X119250000Y-116250000D01*
X119250000Y-114750000D01*
X119251000Y-114724000D01*
X119253000Y-114698000D01*
X119256000Y-114672000D01*
X119261000Y-114646000D01*
X119267000Y-114621000D01*
X119274000Y-114595000D01*
X119283000Y-114571000D01*
X119293000Y-114547000D01*
X119304000Y-114523000D01*
X119317000Y-114500000D01*
X119331000Y-114478000D01*
X119345000Y-114456000D01*
X119361000Y-114435000D01*
X119378000Y-114415000D01*
X119396000Y-114396000D01*
X119415000Y-114378000D01*
X119435000Y-114361000D01*
X119456000Y-114345000D01*
X119478000Y-114331000D01*
X119500000Y-114317000D01*
X119523000Y-114304000D01*
X119547000Y-114293000D01*
X119571000Y-114283000D01*
X119595000Y-114274000D01*
X119621000Y-114267000D01*
X119646000Y-114261000D01*
X119672000Y-114256000D01*
X119698000Y-114253000D01*
X119724000Y-114251000D01*
X119750000Y-114250000D01*
X119776000Y-114251000D01*
G37*
X121276000Y-114251000D02*
X121302000Y-114253000D01*
X121328000Y-114256000D01*
X121354000Y-114261000D01*
X121379000Y-114267000D01*
X121405000Y-114274000D01*
X121429000Y-114283000D01*
X121453000Y-114293000D01*
X121477000Y-114304000D01*
X121500000Y-114317000D01*
X121522000Y-114331000D01*
X121544000Y-114345000D01*
X121565000Y-114361000D01*
X121585000Y-114378000D01*
X121604000Y-114396000D01*
X121622000Y-114415000D01*
X121639000Y-114435000D01*
X121655000Y-114456000D01*
X121669000Y-114478000D01*
X121683000Y-114500000D01*
X121696000Y-114523000D01*
X121707000Y-114547000D01*
X121717000Y-114571000D01*
X121726000Y-114595000D01*
X121733000Y-114621000D01*
X121739000Y-114646000D01*
X121744000Y-114672000D01*
X121747000Y-114698000D01*
X121749000Y-114724000D01*
X121750000Y-114750000D01*
X121750000Y-116250000D01*
X120750000Y-116250000D01*
X120750000Y-114750000D01*
X120751000Y-114724000D01*
X120753000Y-114698000D01*
X120756000Y-114672000D01*
X120761000Y-114646000D01*
X120767000Y-114621000D01*
X120774000Y-114595000D01*
X120783000Y-114571000D01*
X120793000Y-114547000D01*
X120804000Y-114523000D01*
X120817000Y-114500000D01*
X120831000Y-114478000D01*
X120845000Y-114456000D01*
X120861000Y-114435000D01*
X120878000Y-114415000D01*
X120896000Y-114396000D01*
X120915000Y-114378000D01*
X120935000Y-114361000D01*
X120956000Y-114345000D01*
X120978000Y-114331000D01*
X121000000Y-114317000D01*
X121023000Y-114304000D01*
X121047000Y-114293000D01*
X121071000Y-114283000D01*
X121095000Y-114274000D01*
X121121000Y-114267000D01*
X121146000Y-114261000D01*
X121172000Y-114256000D01*
X121198000Y-114253000D01*
X121224000Y-114251000D01*
X121250000Y-114250000D01*
X121276000Y-114251000D01*
G36*
X121276000Y-114251000D02*
G01*
X121302000Y-114253000D01*
X121328000Y-114256000D01*
X121354000Y-114261000D01*
X121379000Y-114267000D01*
X121405000Y-114274000D01*
X121429000Y-114283000D01*
X121453000Y-114293000D01*
X121477000Y-114304000D01*
X121500000Y-114317000D01*
X121522000Y-114331000D01*
X121544000Y-114345000D01*
X121565000Y-114361000D01*
X121585000Y-114378000D01*
X121604000Y-114396000D01*
X121622000Y-114415000D01*
X121639000Y-114435000D01*
X121655000Y-114456000D01*
X121669000Y-114478000D01*
X121683000Y-114500000D01*
X121696000Y-114523000D01*
X121707000Y-114547000D01*
X121717000Y-114571000D01*
X121726000Y-114595000D01*
X121733000Y-114621000D01*
X121739000Y-114646000D01*
X121744000Y-114672000D01*
X121747000Y-114698000D01*
X121749000Y-114724000D01*
X121750000Y-114750000D01*
X121750000Y-116250000D01*
X120750000Y-116250000D01*
X120750000Y-114750000D01*
X120751000Y-114724000D01*
X120753000Y-114698000D01*
X120756000Y-114672000D01*
X120761000Y-114646000D01*
X120767000Y-114621000D01*
X120774000Y-114595000D01*
X120783000Y-114571000D01*
X120793000Y-114547000D01*
X120804000Y-114523000D01*
X120817000Y-114500000D01*
X120831000Y-114478000D01*
X120845000Y-114456000D01*
X120861000Y-114435000D01*
X120878000Y-114415000D01*
X120896000Y-114396000D01*
X120915000Y-114378000D01*
X120935000Y-114361000D01*
X120956000Y-114345000D01*
X120978000Y-114331000D01*
X121000000Y-114317000D01*
X121023000Y-114304000D01*
X121047000Y-114293000D01*
X121071000Y-114283000D01*
X121095000Y-114274000D01*
X121121000Y-114267000D01*
X121146000Y-114261000D01*
X121172000Y-114256000D01*
X121198000Y-114253000D01*
X121224000Y-114251000D01*
X121250000Y-114250000D01*
X121276000Y-114251000D01*
G37*
X123776000Y-116501000D02*
X123802000Y-116503000D01*
X123828000Y-116506000D01*
X123854000Y-116511000D01*
X123879000Y-116517000D01*
X123905000Y-116524000D01*
X123929000Y-116533000D01*
X123953000Y-116543000D01*
X123977000Y-116554000D01*
X124000000Y-116567000D01*
X124022000Y-116581000D01*
X124044000Y-116595000D01*
X124065000Y-116611000D01*
X124085000Y-116628000D01*
X124104000Y-116646000D01*
X124122000Y-116665000D01*
X124139000Y-116685000D01*
X124155000Y-116706000D01*
X124169000Y-116728000D01*
X124183000Y-116750000D01*
X124196000Y-116773000D01*
X124207000Y-116797000D01*
X124217000Y-116821000D01*
X124226000Y-116845000D01*
X124233000Y-116871000D01*
X124239000Y-116896000D01*
X124244000Y-116922000D01*
X124247000Y-116948000D01*
X124249000Y-116974000D01*
X124250000Y-117000000D01*
X124249000Y-117026000D01*
X124247000Y-117052000D01*
X124244000Y-117078000D01*
X124239000Y-117104000D01*
X124233000Y-117129000D01*
X124226000Y-117155000D01*
X124217000Y-117179000D01*
X124207000Y-117203000D01*
X124196000Y-117227000D01*
X124183000Y-117250000D01*
X124169000Y-117272000D01*
X124155000Y-117294000D01*
X124139000Y-117315000D01*
X124122000Y-117335000D01*
X124104000Y-117354000D01*
X124085000Y-117372000D01*
X124065000Y-117389000D01*
X124044000Y-117405000D01*
X124022000Y-117419000D01*
X124000000Y-117433000D01*
X123977000Y-117446000D01*
X123953000Y-117457000D01*
X123929000Y-117467000D01*
X123905000Y-117476000D01*
X123879000Y-117483000D01*
X123854000Y-117489000D01*
X123828000Y-117494000D01*
X123802000Y-117497000D01*
X123776000Y-117499000D01*
X123750000Y-117500000D01*
X122250000Y-117500000D01*
X122250000Y-116500000D01*
X123750000Y-116500000D01*
X123776000Y-116501000D01*
G36*
X123776000Y-116501000D02*
G01*
X123802000Y-116503000D01*
X123828000Y-116506000D01*
X123854000Y-116511000D01*
X123879000Y-116517000D01*
X123905000Y-116524000D01*
X123929000Y-116533000D01*
X123953000Y-116543000D01*
X123977000Y-116554000D01*
X124000000Y-116567000D01*
X124022000Y-116581000D01*
X124044000Y-116595000D01*
X124065000Y-116611000D01*
X124085000Y-116628000D01*
X124104000Y-116646000D01*
X124122000Y-116665000D01*
X124139000Y-116685000D01*
X124155000Y-116706000D01*
X124169000Y-116728000D01*
X124183000Y-116750000D01*
X124196000Y-116773000D01*
X124207000Y-116797000D01*
X124217000Y-116821000D01*
X124226000Y-116845000D01*
X124233000Y-116871000D01*
X124239000Y-116896000D01*
X124244000Y-116922000D01*
X124247000Y-116948000D01*
X124249000Y-116974000D01*
X124250000Y-117000000D01*
X124249000Y-117026000D01*
X124247000Y-117052000D01*
X124244000Y-117078000D01*
X124239000Y-117104000D01*
X124233000Y-117129000D01*
X124226000Y-117155000D01*
X124217000Y-117179000D01*
X124207000Y-117203000D01*
X124196000Y-117227000D01*
X124183000Y-117250000D01*
X124169000Y-117272000D01*
X124155000Y-117294000D01*
X124139000Y-117315000D01*
X124122000Y-117335000D01*
X124104000Y-117354000D01*
X124085000Y-117372000D01*
X124065000Y-117389000D01*
X124044000Y-117405000D01*
X124022000Y-117419000D01*
X124000000Y-117433000D01*
X123977000Y-117446000D01*
X123953000Y-117457000D01*
X123929000Y-117467000D01*
X123905000Y-117476000D01*
X123879000Y-117483000D01*
X123854000Y-117489000D01*
X123828000Y-117494000D01*
X123802000Y-117497000D01*
X123776000Y-117499000D01*
X123750000Y-117500000D01*
X122250000Y-117500000D01*
X122250000Y-116500000D01*
X123750000Y-116500000D01*
X123776000Y-116501000D01*
G37*
X123776000Y-118001000D02*
X123802000Y-118003000D01*
X123828000Y-118006000D01*
X123854000Y-118011000D01*
X123879000Y-118017000D01*
X123905000Y-118024000D01*
X123929000Y-118033000D01*
X123953000Y-118043000D01*
X123977000Y-118054000D01*
X124000000Y-118067000D01*
X124022000Y-118081000D01*
X124044000Y-118095000D01*
X124065000Y-118111000D01*
X124085000Y-118128000D01*
X124104000Y-118146000D01*
X124122000Y-118165000D01*
X124139000Y-118185000D01*
X124155000Y-118206000D01*
X124169000Y-118228000D01*
X124183000Y-118250000D01*
X124196000Y-118273000D01*
X124207000Y-118297000D01*
X124217000Y-118321000D01*
X124226000Y-118345000D01*
X124233000Y-118371000D01*
X124239000Y-118396000D01*
X124244000Y-118422000D01*
X124247000Y-118448000D01*
X124249000Y-118474000D01*
X124250000Y-118500000D01*
X124249000Y-118526000D01*
X124247000Y-118552000D01*
X124244000Y-118578000D01*
X124239000Y-118604000D01*
X124233000Y-118629000D01*
X124226000Y-118655000D01*
X124217000Y-118679000D01*
X124207000Y-118703000D01*
X124196000Y-118727000D01*
X124183000Y-118750000D01*
X124169000Y-118772000D01*
X124155000Y-118794000D01*
X124139000Y-118815000D01*
X124122000Y-118835000D01*
X124104000Y-118854000D01*
X124085000Y-118872000D01*
X124065000Y-118889000D01*
X124044000Y-118905000D01*
X124022000Y-118919000D01*
X124000000Y-118933000D01*
X123977000Y-118946000D01*
X123953000Y-118957000D01*
X123929000Y-118967000D01*
X123905000Y-118976000D01*
X123879000Y-118983000D01*
X123854000Y-118989000D01*
X123828000Y-118994000D01*
X123802000Y-118997000D01*
X123776000Y-118999000D01*
X123750000Y-119000000D01*
X122250000Y-119000000D01*
X122250000Y-118000000D01*
X123750000Y-118000000D01*
X123776000Y-118001000D01*
G36*
X123776000Y-118001000D02*
G01*
X123802000Y-118003000D01*
X123828000Y-118006000D01*
X123854000Y-118011000D01*
X123879000Y-118017000D01*
X123905000Y-118024000D01*
X123929000Y-118033000D01*
X123953000Y-118043000D01*
X123977000Y-118054000D01*
X124000000Y-118067000D01*
X124022000Y-118081000D01*
X124044000Y-118095000D01*
X124065000Y-118111000D01*
X124085000Y-118128000D01*
X124104000Y-118146000D01*
X124122000Y-118165000D01*
X124139000Y-118185000D01*
X124155000Y-118206000D01*
X124169000Y-118228000D01*
X124183000Y-118250000D01*
X124196000Y-118273000D01*
X124207000Y-118297000D01*
X124217000Y-118321000D01*
X124226000Y-118345000D01*
X124233000Y-118371000D01*
X124239000Y-118396000D01*
X124244000Y-118422000D01*
X124247000Y-118448000D01*
X124249000Y-118474000D01*
X124250000Y-118500000D01*
X124249000Y-118526000D01*
X124247000Y-118552000D01*
X124244000Y-118578000D01*
X124239000Y-118604000D01*
X124233000Y-118629000D01*
X124226000Y-118655000D01*
X124217000Y-118679000D01*
X124207000Y-118703000D01*
X124196000Y-118727000D01*
X124183000Y-118750000D01*
X124169000Y-118772000D01*
X124155000Y-118794000D01*
X124139000Y-118815000D01*
X124122000Y-118835000D01*
X124104000Y-118854000D01*
X124085000Y-118872000D01*
X124065000Y-118889000D01*
X124044000Y-118905000D01*
X124022000Y-118919000D01*
X124000000Y-118933000D01*
X123977000Y-118946000D01*
X123953000Y-118957000D01*
X123929000Y-118967000D01*
X123905000Y-118976000D01*
X123879000Y-118983000D01*
X123854000Y-118989000D01*
X123828000Y-118994000D01*
X123802000Y-118997000D01*
X123776000Y-118999000D01*
X123750000Y-119000000D01*
X122250000Y-119000000D01*
X122250000Y-118000000D01*
X123750000Y-118000000D01*
X123776000Y-118001000D01*
G37*
X123776000Y-119501000D02*
X123802000Y-119503000D01*
X123828000Y-119506000D01*
X123854000Y-119511000D01*
X123879000Y-119517000D01*
X123905000Y-119524000D01*
X123929000Y-119533000D01*
X123953000Y-119543000D01*
X123977000Y-119554000D01*
X124000000Y-119567000D01*
X124022000Y-119581000D01*
X124044000Y-119595000D01*
X124065000Y-119611000D01*
X124085000Y-119628000D01*
X124104000Y-119646000D01*
X124122000Y-119665000D01*
X124139000Y-119685000D01*
X124155000Y-119706000D01*
X124169000Y-119728000D01*
X124183000Y-119750000D01*
X124196000Y-119773000D01*
X124207000Y-119797000D01*
X124217000Y-119821000D01*
X124226000Y-119845000D01*
X124233000Y-119871000D01*
X124239000Y-119896000D01*
X124244000Y-119922000D01*
X124247000Y-119948000D01*
X124249000Y-119974000D01*
X124250000Y-120000000D01*
X124249000Y-120026000D01*
X124247000Y-120052000D01*
X124244000Y-120078000D01*
X124239000Y-120104000D01*
X124233000Y-120129000D01*
X124226000Y-120155000D01*
X124217000Y-120179000D01*
X124207000Y-120203000D01*
X124196000Y-120227000D01*
X124183000Y-120250000D01*
X124169000Y-120272000D01*
X124155000Y-120294000D01*
X124139000Y-120315000D01*
X124122000Y-120335000D01*
X124104000Y-120354000D01*
X124085000Y-120372000D01*
X124065000Y-120389000D01*
X124044000Y-120405000D01*
X124022000Y-120419000D01*
X124000000Y-120433000D01*
X123977000Y-120446000D01*
X123953000Y-120457000D01*
X123929000Y-120467000D01*
X123905000Y-120476000D01*
X123879000Y-120483000D01*
X123854000Y-120489000D01*
X123828000Y-120494000D01*
X123802000Y-120497000D01*
X123776000Y-120499000D01*
X123750000Y-120500000D01*
X122250000Y-120500000D01*
X122250000Y-119500000D01*
X123750000Y-119500000D01*
X123776000Y-119501000D01*
G36*
X123776000Y-119501000D02*
G01*
X123802000Y-119503000D01*
X123828000Y-119506000D01*
X123854000Y-119511000D01*
X123879000Y-119517000D01*
X123905000Y-119524000D01*
X123929000Y-119533000D01*
X123953000Y-119543000D01*
X123977000Y-119554000D01*
X124000000Y-119567000D01*
X124022000Y-119581000D01*
X124044000Y-119595000D01*
X124065000Y-119611000D01*
X124085000Y-119628000D01*
X124104000Y-119646000D01*
X124122000Y-119665000D01*
X124139000Y-119685000D01*
X124155000Y-119706000D01*
X124169000Y-119728000D01*
X124183000Y-119750000D01*
X124196000Y-119773000D01*
X124207000Y-119797000D01*
X124217000Y-119821000D01*
X124226000Y-119845000D01*
X124233000Y-119871000D01*
X124239000Y-119896000D01*
X124244000Y-119922000D01*
X124247000Y-119948000D01*
X124249000Y-119974000D01*
X124250000Y-120000000D01*
X124249000Y-120026000D01*
X124247000Y-120052000D01*
X124244000Y-120078000D01*
X124239000Y-120104000D01*
X124233000Y-120129000D01*
X124226000Y-120155000D01*
X124217000Y-120179000D01*
X124207000Y-120203000D01*
X124196000Y-120227000D01*
X124183000Y-120250000D01*
X124169000Y-120272000D01*
X124155000Y-120294000D01*
X124139000Y-120315000D01*
X124122000Y-120335000D01*
X124104000Y-120354000D01*
X124085000Y-120372000D01*
X124065000Y-120389000D01*
X124044000Y-120405000D01*
X124022000Y-120419000D01*
X124000000Y-120433000D01*
X123977000Y-120446000D01*
X123953000Y-120457000D01*
X123929000Y-120467000D01*
X123905000Y-120476000D01*
X123879000Y-120483000D01*
X123854000Y-120489000D01*
X123828000Y-120494000D01*
X123802000Y-120497000D01*
X123776000Y-120499000D01*
X123750000Y-120500000D01*
X122250000Y-120500000D01*
X122250000Y-119500000D01*
X123750000Y-119500000D01*
X123776000Y-119501000D01*
G37*
X123776000Y-121001000D02*
X123802000Y-121003000D01*
X123828000Y-121006000D01*
X123854000Y-121011000D01*
X123879000Y-121017000D01*
X123905000Y-121024000D01*
X123929000Y-121033000D01*
X123953000Y-121043000D01*
X123977000Y-121054000D01*
X124000000Y-121067000D01*
X124022000Y-121081000D01*
X124044000Y-121095000D01*
X124065000Y-121111000D01*
X124085000Y-121128000D01*
X124104000Y-121146000D01*
X124122000Y-121165000D01*
X124139000Y-121185000D01*
X124155000Y-121206000D01*
X124169000Y-121228000D01*
X124183000Y-121250000D01*
X124196000Y-121273000D01*
X124207000Y-121297000D01*
X124217000Y-121321000D01*
X124226000Y-121345000D01*
X124233000Y-121371000D01*
X124239000Y-121396000D01*
X124244000Y-121422000D01*
X124247000Y-121448000D01*
X124249000Y-121474000D01*
X124250000Y-121500000D01*
X124249000Y-121526000D01*
X124247000Y-121552000D01*
X124244000Y-121578000D01*
X124239000Y-121604000D01*
X124233000Y-121629000D01*
X124226000Y-121655000D01*
X124217000Y-121679000D01*
X124207000Y-121703000D01*
X124196000Y-121727000D01*
X124183000Y-121750000D01*
X124169000Y-121772000D01*
X124155000Y-121794000D01*
X124139000Y-121815000D01*
X124122000Y-121835000D01*
X124104000Y-121854000D01*
X124085000Y-121872000D01*
X124065000Y-121889000D01*
X124044000Y-121905000D01*
X124022000Y-121919000D01*
X124000000Y-121933000D01*
X123977000Y-121946000D01*
X123953000Y-121957000D01*
X123929000Y-121967000D01*
X123905000Y-121976000D01*
X123879000Y-121983000D01*
X123854000Y-121989000D01*
X123828000Y-121994000D01*
X123802000Y-121997000D01*
X123776000Y-121999000D01*
X123750000Y-122000000D01*
X122250000Y-122000000D01*
X122250000Y-121000000D01*
X123750000Y-121000000D01*
X123776000Y-121001000D01*
G36*
X123776000Y-121001000D02*
G01*
X123802000Y-121003000D01*
X123828000Y-121006000D01*
X123854000Y-121011000D01*
X123879000Y-121017000D01*
X123905000Y-121024000D01*
X123929000Y-121033000D01*
X123953000Y-121043000D01*
X123977000Y-121054000D01*
X124000000Y-121067000D01*
X124022000Y-121081000D01*
X124044000Y-121095000D01*
X124065000Y-121111000D01*
X124085000Y-121128000D01*
X124104000Y-121146000D01*
X124122000Y-121165000D01*
X124139000Y-121185000D01*
X124155000Y-121206000D01*
X124169000Y-121228000D01*
X124183000Y-121250000D01*
X124196000Y-121273000D01*
X124207000Y-121297000D01*
X124217000Y-121321000D01*
X124226000Y-121345000D01*
X124233000Y-121371000D01*
X124239000Y-121396000D01*
X124244000Y-121422000D01*
X124247000Y-121448000D01*
X124249000Y-121474000D01*
X124250000Y-121500000D01*
X124249000Y-121526000D01*
X124247000Y-121552000D01*
X124244000Y-121578000D01*
X124239000Y-121604000D01*
X124233000Y-121629000D01*
X124226000Y-121655000D01*
X124217000Y-121679000D01*
X124207000Y-121703000D01*
X124196000Y-121727000D01*
X124183000Y-121750000D01*
X124169000Y-121772000D01*
X124155000Y-121794000D01*
X124139000Y-121815000D01*
X124122000Y-121835000D01*
X124104000Y-121854000D01*
X124085000Y-121872000D01*
X124065000Y-121889000D01*
X124044000Y-121905000D01*
X124022000Y-121919000D01*
X124000000Y-121933000D01*
X123977000Y-121946000D01*
X123953000Y-121957000D01*
X123929000Y-121967000D01*
X123905000Y-121976000D01*
X123879000Y-121983000D01*
X123854000Y-121989000D01*
X123828000Y-121994000D01*
X123802000Y-121997000D01*
X123776000Y-121999000D01*
X123750000Y-122000000D01*
X122250000Y-122000000D01*
X122250000Y-121000000D01*
X123750000Y-121000000D01*
X123776000Y-121001000D01*
G37*
X123776000Y-122501000D02*
X123802000Y-122503000D01*
X123828000Y-122506000D01*
X123854000Y-122511000D01*
X123879000Y-122517000D01*
X123905000Y-122524000D01*
X123929000Y-122533000D01*
X123953000Y-122543000D01*
X123977000Y-122554000D01*
X124000000Y-122567000D01*
X124022000Y-122581000D01*
X124044000Y-122595000D01*
X124065000Y-122611000D01*
X124085000Y-122628000D01*
X124104000Y-122646000D01*
X124122000Y-122665000D01*
X124139000Y-122685000D01*
X124155000Y-122706000D01*
X124169000Y-122728000D01*
X124183000Y-122750000D01*
X124196000Y-122773000D01*
X124207000Y-122797000D01*
X124217000Y-122821000D01*
X124226000Y-122845000D01*
X124233000Y-122871000D01*
X124239000Y-122896000D01*
X124244000Y-122922000D01*
X124247000Y-122948000D01*
X124249000Y-122974000D01*
X124250000Y-123000000D01*
X124249000Y-123026000D01*
X124247000Y-123052000D01*
X124244000Y-123078000D01*
X124239000Y-123104000D01*
X124233000Y-123129000D01*
X124226000Y-123155000D01*
X124217000Y-123179000D01*
X124207000Y-123203000D01*
X124196000Y-123227000D01*
X124183000Y-123250000D01*
X124169000Y-123272000D01*
X124155000Y-123294000D01*
X124139000Y-123315000D01*
X124122000Y-123335000D01*
X124104000Y-123354000D01*
X124085000Y-123372000D01*
X124065000Y-123389000D01*
X124044000Y-123405000D01*
X124022000Y-123419000D01*
X124000000Y-123433000D01*
X123977000Y-123446000D01*
X123953000Y-123457000D01*
X123929000Y-123467000D01*
X123905000Y-123476000D01*
X123879000Y-123483000D01*
X123854000Y-123489000D01*
X123828000Y-123494000D01*
X123802000Y-123497000D01*
X123776000Y-123499000D01*
X123750000Y-123500000D01*
X123150000Y-123500000D01*
X123150000Y-122500000D01*
X123750000Y-122500000D01*
X123776000Y-122501000D01*
G36*
X123776000Y-122501000D02*
G01*
X123802000Y-122503000D01*
X123828000Y-122506000D01*
X123854000Y-122511000D01*
X123879000Y-122517000D01*
X123905000Y-122524000D01*
X123929000Y-122533000D01*
X123953000Y-122543000D01*
X123977000Y-122554000D01*
X124000000Y-122567000D01*
X124022000Y-122581000D01*
X124044000Y-122595000D01*
X124065000Y-122611000D01*
X124085000Y-122628000D01*
X124104000Y-122646000D01*
X124122000Y-122665000D01*
X124139000Y-122685000D01*
X124155000Y-122706000D01*
X124169000Y-122728000D01*
X124183000Y-122750000D01*
X124196000Y-122773000D01*
X124207000Y-122797000D01*
X124217000Y-122821000D01*
X124226000Y-122845000D01*
X124233000Y-122871000D01*
X124239000Y-122896000D01*
X124244000Y-122922000D01*
X124247000Y-122948000D01*
X124249000Y-122974000D01*
X124250000Y-123000000D01*
X124249000Y-123026000D01*
X124247000Y-123052000D01*
X124244000Y-123078000D01*
X124239000Y-123104000D01*
X124233000Y-123129000D01*
X124226000Y-123155000D01*
X124217000Y-123179000D01*
X124207000Y-123203000D01*
X124196000Y-123227000D01*
X124183000Y-123250000D01*
X124169000Y-123272000D01*
X124155000Y-123294000D01*
X124139000Y-123315000D01*
X124122000Y-123335000D01*
X124104000Y-123354000D01*
X124085000Y-123372000D01*
X124065000Y-123389000D01*
X124044000Y-123405000D01*
X124022000Y-123419000D01*
X124000000Y-123433000D01*
X123977000Y-123446000D01*
X123953000Y-123457000D01*
X123929000Y-123467000D01*
X123905000Y-123476000D01*
X123879000Y-123483000D01*
X123854000Y-123489000D01*
X123828000Y-123494000D01*
X123802000Y-123497000D01*
X123776000Y-123499000D01*
X123750000Y-123500000D01*
X123150000Y-123500000D01*
X123150000Y-122500000D01*
X123750000Y-122500000D01*
X123776000Y-122501000D01*
G37*
%TD*%
D11*
%TO.C,J2*%
X136365000Y-126000000D03*
X137635000Y-126000000D03*
%TD*%
D12*
%TO.C,D3*%
X101250000Y-118600000D03*
X101950000Y-118600000D03*
%TD*%
D13*
%TO.C,JP1*%
X136050000Y-121400000D03*
X137950000Y-121400000D03*
%TD*%
D14*
%TO.C,C1*%
X120025000Y-111500000D03*
X122975000Y-111500000D03*
%TD*%
D15*
%TO.C,C3*%
X131000000Y-110875000D03*
X131000000Y-109325000D03*
%TD*%
D16*
%TO.C,R7*%
X102975000Y-117100000D03*
X104625000Y-117100000D03*
%TD*%
%TO.C,R8*%
X105975000Y-115000000D03*
X107625000Y-115000000D03*
%TD*%
D15*
%TO.C,C8*%
X100200000Y-114975000D03*
X100200000Y-113425000D03*
%TD*%
D17*
%TO.C,SW1*%
X103200000Y-119150000D03*
X109200000Y-119150000D03*
X103200000Y-122850000D03*
X109200000Y-122850000D03*
%TD*%
D15*
%TO.C,C5*%
X117000000Y-113050000D03*
X117000000Y-111500000D03*
%TD*%
D18*
%TO.C,R1*%
X104625000Y-112600000D03*
X102975000Y-112600000D03*
%TD*%
D15*
%TO.C,C4*%
X131000000Y-114175000D03*
X131000000Y-112625000D03*
%TD*%
D16*
%TO.C,D1*%
X105600000Y-112000000D03*
X107200000Y-112000000D03*
%TD*%
D11*
%TO.C,J1*%
X107000000Y-103905000D03*
X107000000Y-102635000D03*
X107000000Y-101365000D03*
X107000000Y-100095000D03*
%TD*%
D19*
%TO.C,C2*%
X112550000Y-111500000D03*
X114450000Y-111500000D03*
%TD*%
M02*
