%TF.GenerationSoftware,KiCad,Pcbnew,9.0.3*%
%TF.CreationDate,2026-06-28T15:27:49-06:00*%
%TF.ProjectId,BleSafeDevice_DA14531MOD.kicad_pro,426c6553-6166-4654-9465-766963655f44,rev?*%
%TF.SameCoordinates,Original*%
%TF.FileFunction,Soldermask,Bot*%
%TF.FilePolarity,Negative*%
%FSLAX46Y46*%
G04 Gerber Fmt 4.6, Leading zero omitted, Abs format (unit mm)*
G04 Created by KiCad (PCBNEW 9.0.3) date 2026-06-28 15:27:49*
%MOMM*%
%LPD*%
G01*
G04 APERTURE LIST*
G04 APERTURE END LIST*
G36*
X134772208Y-124414254D02*
G01*
X134873943Y-124472991D01*
X134957009Y-124556057D01*
X135015746Y-124657792D01*
X135046150Y-124771263D01*
X135046150Y-124888737D01*
X135015746Y-125002208D01*
X134957009Y-125103943D01*
X134873943Y-125187009D01*
X134772208Y-125245746D01*
X134658737Y-125276150D01*
X134541263Y-125276150D01*
X134427792Y-125245746D01*
X134326057Y-125187009D01*
X134242991Y-125103943D01*
X134184254Y-125002208D01*
X134153850Y-124888737D01*
X134153850Y-124771263D01*
X134184254Y-124657792D01*
X134242991Y-124556057D01*
X134326057Y-124472991D01*
X134427792Y-124414254D01*
X134541263Y-124383850D01*
X134658737Y-124383850D01*
X134772208Y-124414254D01*
G37*
G36*
X137772208Y-124414254D02*
G01*
X137873943Y-124472991D01*
X137957009Y-124556057D01*
X138015746Y-124657792D01*
X138046150Y-124771263D01*
X138046150Y-124888737D01*
X138015746Y-125002208D01*
X137957009Y-125103943D01*
X137873943Y-125187009D01*
X137772208Y-125245746D01*
X137658737Y-125276150D01*
X137541263Y-125276150D01*
X137427792Y-125245746D01*
X137326057Y-125187009D01*
X137242991Y-125103943D01*
X137184254Y-125002208D01*
X137153850Y-124888737D01*
X137153850Y-124771263D01*
X137184254Y-124657792D01*
X137242991Y-124556057D01*
X137326057Y-124472991D01*
X137427792Y-124414254D01*
X137541263Y-124383850D01*
X137658737Y-124383850D01*
X137772208Y-124414254D01*
G37*
G36*
X104679034Y-105865764D02*
G01*
X104712125Y-105887875D01*
X104734236Y-105920966D01*
X104742000Y-105960000D01*
X104742000Y-111040000D01*
X104734236Y-111079034D01*
X104712125Y-111112125D01*
X104679034Y-111134236D01*
X104640000Y-111142000D01*
X99560000Y-111142000D01*
X99520966Y-111134236D01*
X99487875Y-111112125D01*
X99465764Y-111079034D01*
X99458000Y-111040000D01*
X99458000Y-105960000D01*
X99465764Y-105920966D01*
X99487875Y-105887875D01*
X99520966Y-105865764D01*
X99560000Y-105858000D01*
X104640000Y-105858000D01*
X104679034Y-105865764D01*
G37*
G36*
X130329034Y-105865764D02*
G01*
X130362125Y-105887875D01*
X130384236Y-105920966D01*
X130392000Y-105960000D01*
X130392000Y-111040000D01*
X130384236Y-111079034D01*
X130362125Y-111112125D01*
X130329034Y-111134236D01*
X130290000Y-111142000D01*
X125210000Y-111142000D01*
X125170966Y-111134236D01*
X125137875Y-111112125D01*
X125115764Y-111079034D01*
X125108000Y-111040000D01*
X125108000Y-105960000D01*
X125115764Y-105920966D01*
X125137875Y-105887875D01*
X125170966Y-105865764D01*
X125210000Y-105858000D01*
X130290000Y-105858000D01*
X130329034Y-105865764D01*
G37*
G36*
X116944034Y-106425764D02*
G01*
X116977125Y-106447875D01*
X116999236Y-106480966D01*
X117007000Y-106520000D01*
X117007000Y-110480000D01*
X116999236Y-110519034D01*
X116977125Y-110552125D01*
X116944034Y-110574236D01*
X116905000Y-110582000D01*
X112945000Y-110582000D01*
X112905966Y-110574236D01*
X112872875Y-110552125D01*
X112850764Y-110519034D01*
X112843000Y-110480000D01*
X112843000Y-106520000D01*
X112850764Y-106480966D01*
X112872875Y-106447875D01*
X112905966Y-106425764D01*
X112945000Y-106418000D01*
X116905000Y-106418000D01*
X116944034Y-106425764D01*
G37*
M02*
