%TF.GenerationSoftware,KiCad,Pcbnew,9.0.3*%
%TF.CreationDate,2026-06-28T15:27:49-06:00*%
%TF.ProjectId,BleSafeDevice_DA14531MOD.kicad_pro,426c6553-6166-4654-9465-766963655f44,rev?*%
%TF.SameCoordinates,Original*%
%TF.FileFunction,Copper,L1,Top*%
%TF.FilePolarity,Positive*%
%FSLAX46Y46*%
G04 Gerber Fmt 4.6, Leading zero omitted, Abs format (unit mm)*
G04 Created by KiCad (PCBNEW 9.0.3) date 2026-06-28 15:27:49*
%MOMM*%
%LPD*%
G01*
G04 APERTURE LIST*
G04 Aperture macros list*
%AMRoundRect*
0 Rectangle with rounded corners*
0 $1 Rounding radius*
0 $2 $3 $4 $5 $6 $7 $8 $9 X,Y pos of 4 corners*
0 Add a 4 corners polygon primitive as box body*
4,1,4,$2,$3,$4,$5,$6,$7,$8,$9,$2,$3,0*
0 Add four circle primitives for the rounded corners*
1,1,$1+$1,$2,$3*
1,1,$1+$1,$4,$5*
1,1,$1+$1,$6,$7*
1,1,$1+$1,$8,$9*
0 Add four rect primitives between the rounded corners*
20,1,$1+$1,$2,$3,$4,$5,0*
20,1,$1+$1,$4,$5,$6,$7,0*
20,1,$1+$1,$6,$7,$8,$9,0*
20,1,$1+$1,$8,$9,$2,$3,0*%
%AMFreePoly0*
4,1,121,0.103536,0.503536,0.105000,0.500000,0.105000,-0.500000,0.103536,-0.503536,0.100000,-0.505000,-0.500000,-0.505000,-0.500192,-0.504996,-0.526192,-0.503996,-0.526383,-0.503985,-0.552383,-0.501985,-0.552573,-0.501967,-0.578573,-0.498967,-0.578944,-0.498910,-0.604944,-0.493910,-0.605167,-0.493862,-0.630167,-0.487862,-0.630300,-0.487828,-0.656300,-0.480828,-0.656756,-0.480682,-0.680756,-0.471682,
-0.680923,-0.471615,-0.704923,-0.461615,-0.705083,-0.461545,-0.729083,-0.450545,-0.729460,-0.450353,-0.752460,-0.437353,-0.752684,-0.437218,-0.796684,-0.409218,-0.797030,-0.408977,-0.818030,-0.392977,-0.818238,-0.392810,-0.838238,-0.375810,-0.838439,-0.375630,-0.857439,-0.357630,-0.857630,-0.357439,-0.875630,-0.338439,-0.875810,-0.338238,-0.892810,-0.318238,-0.892977,-0.318030,-0.908977,-0.297030,
-0.909218,-0.296684,-0.937218,-0.252684,-0.937353,-0.252460,-0.950353,-0.229460,-0.950545,-0.229083,-0.961545,-0.205083,-0.961615,-0.204923,-0.971615,-0.180923,-0.971682,-0.180756,-0.980682,-0.156756,-0.980828,-0.156300,-0.987828,-0.130300,-0.987862,-0.130167,-0.993862,-0.105167,-0.993910,-0.104944,-0.998910,-0.078944,-0.998967,-0.078573,-1.001967,-0.052573,-1.001985,-0.052383,-1.003985,-0.026383,
-1.003996,-0.026192,-1.004996,-0.000192,-1.004996,0.000192,-1.003996,0.026192,-1.003985,0.026383,-1.001985,0.052383,-1.001967,0.052573,-0.998967,0.078573,-0.998910,0.078944,-0.993910,0.104944,-0.993862,0.105167,-0.987862,0.130167,-0.987828,0.130300,-0.980828,0.156300,-0.980682,0.156756,-0.971682,0.180756,-0.971615,0.180923,-0.961615,0.204923,-0.961545,0.205083,-0.950545,0.229083,
-0.950353,0.229460,-0.937353,0.252460,-0.937218,0.252684,-0.909218,0.296684,-0.908977,0.297030,-0.892977,0.318030,-0.892810,0.318238,-0.875810,0.338238,-0.875630,0.338439,-0.857630,0.357439,-0.857439,0.357630,-0.838439,0.375630,-0.838238,0.375810,-0.818238,0.392810,-0.818030,0.392977,-0.797030,0.408977,-0.796684,0.409218,-0.752684,0.437218,-0.752460,0.437353,-0.729460,0.450353,
-0.729083,0.450545,-0.705083,0.461545,-0.704923,0.461615,-0.680923,0.471615,-0.680756,0.471682,-0.656756,0.480682,-0.656300,0.480828,-0.630300,0.487828,-0.630167,0.487862,-0.605167,0.493862,-0.604944,0.493910,-0.578944,0.498910,-0.578573,0.498967,-0.552573,0.501967,-0.552383,0.501985,-0.526383,0.503985,-0.526192,0.503996,-0.500192,0.504996,-0.500000,0.505000,0.100000,0.505000,
0.103536,0.503536,0.103536,0.503536,$1*%
%AMFreePoly1*
4,1,121,1.003536,0.503536,1.005000,0.500000,1.005000,-0.500000,1.003536,-0.503536,1.000000,-0.505000,-0.500000,-0.505000,-0.500192,-0.504996,-0.526192,-0.503996,-0.526383,-0.503985,-0.552383,-0.501985,-0.552573,-0.501967,-0.578573,-0.498967,-0.578944,-0.498910,-0.604944,-0.493910,-0.605167,-0.493862,-0.630167,-0.487862,-0.630300,-0.487828,-0.656300,-0.480828,-0.656756,-0.480682,-0.680756,-0.471682,
-0.680923,-0.471615,-0.704923,-0.461615,-0.705083,-0.461545,-0.729083,-0.450545,-0.729460,-0.450353,-0.752460,-0.437353,-0.752684,-0.437218,-0.796684,-0.409218,-0.797030,-0.408977,-0.818030,-0.392977,-0.818238,-0.392810,-0.838238,-0.375810,-0.838439,-0.375630,-0.857439,-0.357630,-0.857630,-0.357439,-0.875630,-0.338439,-0.875810,-0.338238,-0.892810,-0.318238,-0.892977,-0.318030,-0.908977,-0.297030,
-0.909218,-0.296684,-0.937218,-0.252684,-0.937353,-0.252460,-0.950353,-0.229460,-0.950545,-0.229083,-0.961545,-0.205083,-0.961615,-0.204923,-0.971615,-0.180923,-0.971682,-0.180756,-0.980682,-0.156756,-0.980828,-0.156300,-0.987828,-0.130300,-0.987862,-0.130167,-0.993862,-0.105167,-0.993910,-0.104944,-0.998910,-0.078944,-0.998967,-0.078573,-1.001967,-0.052573,-1.001985,-0.052383,-1.003985,-0.026383,
-1.003996,-0.026192,-1.004996,-0.000192,-1.004996,0.000192,-1.003996,0.026192,-1.003985,0.026383,-1.001985,0.052383,-1.001967,0.052573,-0.998967,0.078573,-0.998910,0.078944,-0.993910,0.104944,-0.993862,0.105167,-0.987862,0.130167,-0.987828,0.130300,-0.980828,0.156300,-0.980682,0.156756,-0.971682,0.180756,-0.971615,0.180923,-0.961615,0.204923,-0.961545,0.205083,-0.950545,0.229083,
-0.950353,0.229460,-0.937353,0.252460,-0.937218,0.252684,-0.909218,0.296684,-0.908977,0.297030,-0.892977,0.318030,-0.892810,0.318238,-0.875810,0.338238,-0.875630,0.338439,-0.857630,0.357439,-0.857439,0.357630,-0.838439,0.375630,-0.838238,0.375810,-0.818238,0.392810,-0.818030,0.392977,-0.797030,0.408977,-0.796684,0.409218,-0.752684,0.437218,-0.752460,0.437353,-0.729460,0.450353,
-0.729083,0.450545,-0.705083,0.461545,-0.704923,0.461615,-0.680923,0.471615,-0.680756,0.471682,-0.656756,0.480682,-0.656300,0.480828,-0.630300,0.487828,-0.630167,0.487862,-0.605167,0.493862,-0.604944,0.493910,-0.578944,0.498910,-0.578573,0.498967,-0.552573,0.501967,-0.552383,0.501985,-0.526383,0.503985,-0.526192,0.503996,-0.500192,0.504996,-0.500000,0.505000,1.000000,0.505000,
1.003536,0.503536,1.003536,0.503536,$1*%
%AMFreePoly2*
4,1,121,0.503536,1.003536,0.505000,1.000000,0.505000,-0.500000,0.504996,-0.500192,0.503996,-0.526192,0.503985,-0.526383,0.501985,-0.552383,0.501967,-0.552573,0.498967,-0.578573,0.498910,-0.578944,0.493910,-0.604944,0.493862,-0.605167,0.487862,-0.630167,0.487828,-0.630300,0.480828,-0.656300,0.480682,-0.656756,0.471682,-0.680756,0.471615,-0.680923,0.461615,-0.704923,0.461545,-0.705083,
0.450545,-0.729083,0.450353,-0.729460,0.437353,-0.752460,0.437218,-0.752684,0.409218,-0.796684,0.408977,-0.797030,0.392977,-0.818030,0.392810,-0.818238,0.375810,-0.838238,0.375630,-0.838439,0.357630,-0.857439,0.357439,-0.857630,0.338439,-0.875630,0.338238,-0.875810,0.318238,-0.892810,0.318030,-0.892977,0.297030,-0.908977,0.296684,-0.909218,0.252684,-0.937218,0.252460,-0.937353,
0.229460,-0.950353,0.229083,-0.950545,0.205083,-0.961545,0.204923,-0.961615,0.180923,-0.971615,0.180756,-0.971682,0.156756,-0.980682,0.156300,-0.980828,0.130300,-0.987828,0.130167,-0.987862,0.105167,-0.993862,0.104944,-0.993910,0.078944,-0.998910,0.078573,-0.998967,0.052573,-1.001967,0.052383,-1.001985,0.026383,-1.003985,0.026192,-1.003996,0.000192,-1.004996,-0.000192,-1.004996,
-0.026192,-1.003996,-0.026383,-1.003985,-0.052383,-1.001985,-0.052573,-1.001967,-0.078573,-0.998967,-0.078944,-0.998910,-0.104944,-0.993910,-0.105167,-0.993862,-0.130167,-0.987862,-0.130300,-0.987828,-0.156300,-0.980828,-0.156756,-0.980682,-0.180756,-0.971682,-0.180923,-0.971615,-0.204923,-0.961615,-0.205083,-0.961545,-0.229083,-0.950545,-0.229460,-0.950353,-0.252460,-0.937353,-0.252684,-0.937218,
-0.296684,-0.909218,-0.297030,-0.908977,-0.318030,-0.892977,-0.318238,-0.892810,-0.338238,-0.875810,-0.338439,-0.875630,-0.357439,-0.857630,-0.357630,-0.857439,-0.375630,-0.838439,-0.375810,-0.838238,-0.392810,-0.818238,-0.392977,-0.818030,-0.408977,-0.797030,-0.409218,-0.796684,-0.437218,-0.752684,-0.437353,-0.752460,-0.450353,-0.729460,-0.450545,-0.729083,-0.461545,-0.705083,-0.461615,-0.704923,
-0.471615,-0.680923,-0.471682,-0.680756,-0.480682,-0.656756,-0.480828,-0.656300,-0.487828,-0.630300,-0.487862,-0.630167,-0.493862,-0.605167,-0.493910,-0.604944,-0.498910,-0.578944,-0.498967,-0.578573,-0.501967,-0.552573,-0.501985,-0.552383,-0.503985,-0.526383,-0.503996,-0.526192,-0.504996,-0.500192,-0.505000,-0.500000,-0.505000,1.000000,-0.503536,1.003536,-0.500000,1.005000,0.500000,1.005000,
0.503536,1.003536,0.503536,1.003536,$1*%
%AMFreePoly3*
4,1,121,0.500192,0.504996,0.526192,0.503996,0.526383,0.503985,0.552383,0.501985,0.552573,0.501967,0.578573,0.498967,0.578944,0.498910,0.604944,0.493910,0.605167,0.493862,0.630167,0.487862,0.630300,0.487828,0.656300,0.480828,0.656756,0.480682,0.680756,0.471682,0.680923,0.471615,0.704923,0.461615,0.705083,0.461545,0.729083,0.450545,0.729460,0.450353,0.752460,0.437353,
0.752684,0.437218,0.796684,0.409218,0.797030,0.408977,0.818030,0.392977,0.818238,0.392810,0.838238,0.375810,0.838439,0.375630,0.857439,0.357630,0.857630,0.357439,0.875630,0.338439,0.875810,0.338238,0.892810,0.318238,0.892977,0.318030,0.908977,0.297030,0.909218,0.296684,0.937218,0.252684,0.937353,0.252460,0.950353,0.229460,0.950545,0.229083,0.961545,0.205083,
0.961615,0.204923,0.971615,0.180923,0.971682,0.180756,0.980682,0.156756,0.980828,0.156300,0.987828,0.130300,0.987862,0.130167,0.993862,0.105167,0.993910,0.104944,0.998910,0.078944,0.998967,0.078573,1.001967,0.052573,1.001985,0.052383,1.003985,0.026383,1.003996,0.026192,1.004996,0.000192,1.004996,-0.000192,1.003996,-0.026192,1.003985,-0.026383,1.001985,-0.052383,
1.001967,-0.052573,0.998967,-0.078573,0.998910,-0.078944,0.993910,-0.104944,0.993862,-0.105167,0.987862,-0.130167,0.987828,-0.130300,0.980828,-0.156300,0.980682,-0.156756,0.971682,-0.180756,0.971615,-0.180923,0.961615,-0.204923,0.961545,-0.205083,0.950545,-0.229083,0.950353,-0.229460,0.937353,-0.252460,0.937218,-0.252684,0.909218,-0.296684,0.908977,-0.297030,0.892977,-0.318030,
0.892810,-0.318238,0.875810,-0.338238,0.875630,-0.338439,0.857630,-0.357439,0.857439,-0.357630,0.838439,-0.375630,0.838238,-0.375810,0.818238,-0.392810,0.818030,-0.392977,0.797030,-0.408977,0.796684,-0.409218,0.752684,-0.437218,0.752460,-0.437353,0.729460,-0.450353,0.729083,-0.450545,0.705083,-0.461545,0.704923,-0.461615,0.680923,-0.471615,0.680756,-0.471682,0.656756,-0.480682,
0.656300,-0.480828,0.630300,-0.487828,0.630167,-0.487862,0.605167,-0.493862,0.604944,-0.493910,0.578944,-0.498910,0.578573,-0.498967,0.552573,-0.501967,0.552383,-0.501985,0.526383,-0.503985,0.526192,-0.503996,0.500192,-0.504996,0.500000,-0.505000,-1.000000,-0.505000,-1.003536,-0.503536,-1.005000,-0.500000,-1.005000,0.500000,-1.003536,0.503536,-1.000000,0.505000,0.500000,0.505000,
0.500192,0.504996,0.500192,0.504996,$1*%
G04 Aperture macros list end*
%TA.AperFunction,SMDPad,CuDef*%
%ADD10C,1.000000*%
%TD*%
%TA.AperFunction,SMDPad,CuDef*%
%ADD11RoundRect,0.050000X-0.150000X-0.300000X0.150000X-0.300000X0.150000X0.300000X-0.150000X0.300000X0*%
%TD*%
%TA.AperFunction,SMDPad,CuDef*%
%ADD12RoundRect,0.260000X-0.490000X-0.390000X0.490000X-0.390000X0.490000X0.390000X-0.490000X0.390000X0*%
%TD*%
%TA.AperFunction,SMDPad,CuDef*%
%ADD13RoundRect,0.250000X-0.325000X-1.100000X0.325000X-1.100000X0.325000X1.100000X-0.325000X1.100000X0*%
%TD*%
%TA.AperFunction,SMDPad,CuDef*%
%ADD14R,1.000000X0.800000*%
%TD*%
%TA.AperFunction,SMDPad,CuDef*%
%ADD15R,0.700000X1.500000*%
%TD*%
%TA.AperFunction,SMDPad,CuDef*%
%ADD16RoundRect,0.225000X0.250000X-0.225000X0.250000X0.225000X-0.250000X0.225000X-0.250000X-0.225000X0*%
%TD*%
%TA.AperFunction,SMDPad,CuDef*%
%ADD17RoundRect,0.200000X-0.200000X-0.275000X0.200000X-0.275000X0.200000X0.275000X-0.200000X0.275000X0*%
%TD*%
%TA.AperFunction,SMDPad,CuDef*%
%ADD18R,1.000000X0.700000*%
%TD*%
%TA.AperFunction,SMDPad,CuDef*%
%ADD19RoundRect,0.200000X0.200000X0.275000X-0.200000X0.275000X-0.200000X-0.275000X0.200000X-0.275000X0*%
%TD*%
%TA.AperFunction,SMDPad,CuDef*%
%ADD20FreePoly0,180.000000*%
%TD*%
%TA.AperFunction,SMDPad,CuDef*%
%ADD21FreePoly1,180.000000*%
%TD*%
%TA.AperFunction,SMDPad,CuDef*%
%ADD22FreePoly2,180.000000*%
%TD*%
%TA.AperFunction,SMDPad,CuDef*%
%ADD23FreePoly3,180.000000*%
%TD*%
%TA.AperFunction,SMDPad,CuDef*%
%ADD24RoundRect,0.250000X-0.250000X-0.475000X0.250000X-0.475000X0.250000X0.475000X-0.250000X0.475000X0*%
%TD*%
%TA.AperFunction,ViaPad*%
%ADD25C,0.650000*%
%TD*%
%TA.AperFunction,ViaPad*%
%ADD26C,0.600000*%
%TD*%
%TA.AperFunction,Conductor*%
%ADD27C,0.250000*%
%TD*%
%TA.AperFunction,Conductor*%
%ADD28C,0.220000*%
%TD*%
%TA.AperFunction,Conductor*%
%ADD29C,0.200000*%
%TD*%
%TA.AperFunction,Conductor*%
%ADD30C,0.280000*%
%TD*%
%TA.AperFunction,Conductor*%
%ADD31C,0.300000*%
%TD*%
G04 APERTURE END LIST*
D10*
%TO.P,J2,1*%
%TO.N,VBAT_RAW*%
X135365000Y-101500000D03*
%TO.P,J2,2*%
%TO.N,GND*%
X136635000Y-101500000D03*
%TD*%
D11*
%TO.P,D3,1,K*%
%TO.N,Net-(D3-K)*%
X101250000Y-118600000D03*
%TO.P,D3,2,A*%
%TO.N,GND*%
X101950000Y-118600000D03*
%TD*%
D12*
%TO.P,JP1,1*%
%TO.N,VBAT_SW*%
X135050000Y-115800000D03*
%TO.P,JP1,2*%
%TO.N,VCC*%
X136950000Y-115800000D03*
%TD*%
D13*
%TO.P,C1,1*%
%TO.N,VCC*%
X120025000Y-111500000D03*
%TO.P,C1,2*%
%TO.N,GND*%
X122975000Y-111500000D03*
%TD*%
D14*
%TO.P,S1,*%
%TO.N,*%
X132450000Y-123720000D03*
X132450000Y-125930000D03*
X139750000Y-123720000D03*
X139750000Y-125930000D03*
D15*
%TO.P,S1,1*%
%TO.N,unconnected-(S1-Pad1)*%
X133850000Y-123070000D03*
%TO.P,S1,2*%
%TO.N,VBAT_RAW*%
X136850000Y-123070000D03*
%TO.P,S1,3*%
%TO.N,VBAT_SW*%
X138350000Y-123070000D03*
%TD*%
D16*
%TO.P,C3,1*%
%TO.N,GND*%
X131000000Y-110875000D03*
%TO.P,C3,2*%
%TO.N,VCC*%
X131000000Y-109325000D03*
%TD*%
D17*
%TO.P,R7,1*%
%TO.N,Net-(D3-K)*%
X102975000Y-117100000D03*
%TO.P,R7,2*%
%TO.N,/BTN_SW*%
X104625000Y-117100000D03*
%TD*%
%TO.P,R8,1*%
%TO.N,/BTN_SW*%
X105975000Y-115000000D03*
%TO.P,R8,2*%
%TO.N,VCC*%
X107625000Y-115000000D03*
%TD*%
D16*
%TO.P,C8,1*%
%TO.N,/BTN_SW*%
X100200000Y-114975000D03*
%TO.P,C8,2*%
%TO.N,GND*%
X100200000Y-113425000D03*
%TD*%
D18*
%TO.P,SW1,1*%
%TO.N,Net-(D3-K)*%
X103200000Y-119150000D03*
%TO.P,SW1,2*%
X109200000Y-119150000D03*
%TO.P,SW1,3*%
%TO.N,GND*%
X103200000Y-122850000D03*
%TO.P,SW1,4*%
X109200000Y-122850000D03*
%TD*%
D16*
%TO.P,C5,1*%
%TO.N,GND*%
X117000000Y-113050000D03*
%TO.P,C5,2*%
%TO.N,VCC*%
X117000000Y-111500000D03*
%TD*%
D19*
%TO.P,R1,1*%
%TO.N,Net-(D1-K)*%
X104625000Y-112600000D03*
%TO.P,R1,2*%
%TO.N,LED_R*%
X102975000Y-112600000D03*
%TD*%
D16*
%TO.P,C4,1*%
%TO.N,VCC*%
X131000000Y-114175000D03*
%TO.P,C4,2*%
%TO.N,GND*%
X131000000Y-112625000D03*
%TD*%
D17*
%TO.P,D1,1,K*%
%TO.N,Net-(D1-K)*%
X105600000Y-112000000D03*
%TO.P,D1,2,A*%
%TO.N,VCC*%
X107200000Y-112000000D03*
%TD*%
D20*
%TO.P,U4,J1,NC/GND*%
%TO.N,GND*%
X123250000Y-123000000D03*
D21*
%TO.P,U4,J2,GND*%
X123250000Y-121500000D03*
%TO.P,U4,J3,GND*%
X123250000Y-120000000D03*
%TO.P,U4,J4,GND*%
X123250000Y-118500000D03*
%TO.P,U4,J5,P0_6*%
%TO.N,unconnected-(U4-P0_6-PadJ5)*%
X123250000Y-117000000D03*
D22*
%TO.P,U4,J6,GND*%
%TO.N,GND*%
X121250000Y-115250000D03*
%TO.P,U4,J7,VBAT*%
%TO.N,VCC*%
X119750000Y-115250000D03*
%TO.P,U4,J8,P0_11*%
%TO.N,unconnected-(U4-P0_11-PadJ8)*%
X118250000Y-115250000D03*
%TO.P,U4,J9,P0_10/SWDIO*%
%TO.N,/SWDIO*%
X116750000Y-115250000D03*
%TO.P,U4,J10,P0_2/SWCLK*%
%TO.N,/SWCLK*%
X115250000Y-115250000D03*
%TO.P,U4,J11,GND*%
%TO.N,GND*%
X113750000Y-115250000D03*
D23*
%TO.P,U4,J12,P0_0/RST*%
%TO.N,unconnected-(U4-P0_0{slash}RST-PadJ12)*%
X111750000Y-117000000D03*
%TO.P,U4,J13,P0_7*%
%TO.N,unconnected-(U4-P0_7-PadJ13)*%
X111750000Y-118500000D03*
%TO.P,U4,J14,P0_5*%
%TO.N,unconnected-(U4-P0_5-PadJ14)*%
X111750000Y-120000000D03*
%TO.P,U4,J15,P0_9*%
%TO.N,/BTN_SW*%
X111750000Y-121500000D03*
%TO.P,U4,J16,P0_8*%
%TO.N,LED_R*%
X111750000Y-123000000D03*
%TD*%
D10*
%TO.P,J1,1*%
%TO.N,VCC*%
X107000000Y-103905000D03*
%TO.P,J1,2*%
%TO.N,/SWDIO*%
X107000000Y-102635000D03*
%TO.P,J1,3*%
%TO.N,/SWCLK*%
X107000000Y-101365000D03*
%TO.P,J1,4*%
%TO.N,GND*%
X107000000Y-100095000D03*
%TD*%
D24*
%TO.P,C2,1*%
%TO.N,GND*%
X112550000Y-111500000D03*
%TO.P,C2,2*%
%TO.N,VCC*%
X114450000Y-111500000D03*
%TD*%
D25*
%TO.N,GND*%
X125200000Y-112400000D03*
D26*
X100800000Y-113425000D03*
X101950000Y-119400000D03*
D25*
X110600000Y-110300000D03*
D26*
%TO.N,VCC*%
X108800000Y-107000000D03*
X108800000Y-111000000D03*
%TO.N,/BTN_SW*%
X111750000Y-121500000D03*
X105400000Y-118600000D03*
%TO.N,/SWCLK*%
X107800000Y-105600000D03*
X107800000Y-117800000D03*
X115250000Y-118400000D03*
X107800000Y-116200000D03*
%TO.N,/SWDIO*%
X116750000Y-117000000D03*
X106200000Y-104800000D03*
%TO.N,LED_R*%
X110800000Y-123000000D03*
X102975000Y-112600000D03*
%TO.N,VBAT_RAW*%
X133400000Y-121400000D03*
X135365000Y-102250000D03*
%TD*%
D27*
%TO.N,GND*%
X103000000Y-111200000D02*
X103000000Y-110300000D01*
X122975000Y-111500000D02*
X124700000Y-111500000D01*
X124700000Y-118500000D02*
X123250000Y-118500000D01*
D28*
X130000000Y-112625000D02*
X125200000Y-112400000D01*
D27*
X103200000Y-121200000D02*
X103200000Y-122850000D01*
D28*
X110600000Y-110300000D02*
X112550000Y-110300000D01*
X136635000Y-101500000D02*
X136635000Y-100095000D01*
D27*
X101950000Y-121200000D02*
X103200000Y-121200000D01*
D28*
X112550000Y-113500000D02*
X113750000Y-113500000D01*
D27*
X101950000Y-119400000D02*
X101950000Y-121200000D01*
D29*
X103000000Y-110300000D02*
X104200000Y-110300000D01*
D28*
X136635000Y-100095000D02*
X107000000Y-100095000D01*
X112550000Y-111500000D02*
X112550000Y-113500000D01*
D27*
X124700000Y-111500000D02*
X124700000Y-118500000D01*
X100800000Y-113425000D02*
X100800000Y-111200000D01*
D28*
X131000000Y-110875000D02*
X130000000Y-110875000D01*
X115600000Y-113500000D02*
X113750000Y-113500000D01*
X113750000Y-113500000D02*
X113750000Y-115250000D01*
D27*
X123250000Y-118500000D02*
X123250000Y-120000000D01*
D28*
X130000000Y-110875000D02*
X130000000Y-112625000D01*
X107000000Y-100095000D02*
X104200000Y-100095000D01*
X115600000Y-113050000D02*
X115600000Y-113500000D01*
D27*
X122975000Y-111500000D02*
X122975000Y-115250000D01*
D28*
X104200000Y-100095000D02*
X104200000Y-110300000D01*
X117000000Y-113050000D02*
X115600000Y-113050000D01*
D27*
X101950000Y-118600000D02*
X101950000Y-119400000D01*
X122975000Y-115250000D02*
X121250000Y-115250000D01*
X103200000Y-122850000D02*
X109200000Y-122850000D01*
X123250000Y-121500000D02*
X123250000Y-123000000D01*
D28*
X104200000Y-110300000D02*
X110600000Y-110300000D01*
D27*
X125200000Y-112400000D02*
X122975000Y-111500000D01*
X103200000Y-122850000D02*
X109200000Y-122850000D01*
X100200000Y-113425000D02*
X100800000Y-113425000D01*
D29*
X130000000Y-112625000D02*
X131000000Y-112625000D01*
D27*
X123250000Y-120000000D02*
X123250000Y-121500000D01*
X100800000Y-111200000D02*
X103000000Y-111200000D01*
D28*
X112550000Y-110300000D02*
X112550000Y-111500000D01*
D27*
%TO.N,VCC*%
X107625000Y-114800000D02*
X108800000Y-114800000D01*
X132199999Y-109325000D02*
X132199999Y-114175000D01*
X131000000Y-109325000D02*
X132199999Y-109325000D01*
D30*
X139200000Y-115800000D02*
X139200000Y-107000000D01*
D27*
X131000000Y-109325000D02*
X132199999Y-109325000D01*
D28*
X132199999Y-114175000D02*
X131000000Y-114175000D01*
D30*
X119750000Y-111500000D02*
X119750000Y-115250000D01*
X114450000Y-111500000D02*
X117000000Y-111500000D01*
D27*
X108800000Y-114800000D02*
X108800000Y-111000000D01*
D28*
X132199999Y-109925000D02*
X132199999Y-114175000D01*
D27*
X132199999Y-109325000D02*
X132199999Y-114175000D01*
D30*
X117000000Y-111500000D02*
X120025000Y-111500000D01*
X136950000Y-115800000D02*
X139200000Y-115800000D01*
X120025000Y-111500000D02*
X119750000Y-111500000D01*
D27*
X107625000Y-115000000D02*
X107625000Y-114800000D01*
D30*
X131000000Y-107000000D02*
X114450000Y-107000000D01*
D28*
X131000000Y-109325000D02*
X132199999Y-109925000D01*
D27*
X107000000Y-107000000D02*
X107000000Y-103905000D01*
D29*
X107000000Y-107000000D02*
X108800000Y-107000000D01*
D28*
X131000000Y-107000000D02*
X131000000Y-109325000D01*
D30*
X114450000Y-107000000D02*
X114450000Y-111500000D01*
X139200000Y-107000000D02*
X131000000Y-107000000D01*
D27*
X114450000Y-107000000D02*
X107000000Y-107000000D01*
X107200000Y-112000000D02*
X108800000Y-111000000D01*
%TO.N,/BTN_SW*%
X105400000Y-117100000D02*
X105400000Y-118600000D01*
X100200000Y-114975000D02*
X105975000Y-114975000D01*
X105975000Y-114975000D02*
X105975000Y-115000000D01*
X104625000Y-117100000D02*
X105400000Y-117100000D01*
X105975000Y-117100000D02*
X104625000Y-117100000D01*
X105975000Y-115000000D02*
X105975000Y-117100000D01*
%TO.N,Net-(D3-K)*%
X109200000Y-120000000D02*
X109200000Y-119150000D01*
X103200000Y-119150000D02*
X103200000Y-120000000D01*
X101250000Y-118600000D02*
X101250000Y-117100000D01*
X101250000Y-117100000D02*
X102975000Y-117100000D01*
X103200000Y-120000000D02*
X109200000Y-120000000D01*
X103200000Y-117100000D02*
X103200000Y-119150000D01*
X102975000Y-117100000D02*
X103200000Y-117100000D01*
D29*
%TO.N,/SWCLK*%
X107800000Y-116200000D02*
X107800000Y-117800000D01*
X107000000Y-101365000D02*
X107800000Y-101365000D01*
X107800000Y-101365000D02*
X107800000Y-105600000D01*
X115250000Y-118400000D02*
X115250000Y-115250000D01*
%TO.N,/SWDIO*%
X106200000Y-102635000D02*
X106200000Y-104800000D01*
X116750000Y-117000000D02*
X116750000Y-115250000D01*
X107000000Y-102635000D02*
X106200000Y-102635000D01*
%TO.N,LED_R*%
X110800000Y-123000000D02*
X111750000Y-123000000D01*
%TO.N,Net-(D1-K)*%
X105600000Y-112000000D02*
X104625000Y-112600000D01*
D31*
%TO.N,VBAT_RAW*%
X133400000Y-121400000D02*
X136950000Y-123070000D01*
D27*
X135365000Y-101500000D02*
X135365000Y-102250000D01*
D31*
%TO.N,VBAT_SW*%
X138350000Y-123070000D02*
X135050000Y-115800000D01*
%TD*%
M02*
